<svg xmlns="http://www.w3.org/2000/svg" viewBox="0 0 31 22" fill="#79b53d"><path d="M25.1 17c-.1 0-.2 0-.3-.1L19 11.5c-.2-.2-.2-.5 0-.7.2-.2.5-.2.7 0l5.8 5.4c.2.2.2.5 0 .7-.1.1-.3.1-.4.1zM5.9 17c-.1 0-.3-.1-.4-.2-.2-.2-.2-.5 0-.7l5.8-5.4c.2-.2.5-.2.7 0 .2.2.2.5 0 .7l-5.8 5.4c-.1.2-.2.2-.3.2z"/><path d="M28.5 22h-26C1.1 22 0 20.9 0 19.5v-17C0 1.1 1.1 0 2.5 0h26C29.9 0 31 1.1 31 2.5v17c0 1.4-1.1 2.5-2.5 2.5zM2.5 1C1.7 1 1 1.7 1 2.5v17c0 .9.7 1.5 1.5 1.5h26c.8 0 1.5-.7 1.5-1.5v-17c0-.8-.7-1.5-1.5-1.5h-26z"/><path d="M15.5 13.5c-.7 0-1.3-.2-1.8-.7L.8 1.7C.6 1.5.6 1.2.8 1c.2-.2.5-.2.7 0l12.8 11.2c.6.6 1.7.6 2.4 0L29.5.9c.2-.2.5-.2.7 0 .2.2.2.5 0 .7L17.3 12.9c-.5.4-1.1.6-1.8.6z"/></svg>