<svg xmlns="http://www.w3.org/2000/svg" viewBox="0 0 480 480"><path d="M368 120V88h-48v32h-80V48c0-31.2-61.8-48-120-48S0 16.8 0 48v192c0 31.2 61.8 48 120 48s120-16.8 120-48v-72h66l7.8 32h6.2v256c0 13.3 10.7 24 24 24s24-10.7 24-24V200h6.2l7.9-31.5 97.9 8.2V120H368zm-32-16h16v16h-16v-16zm-16 32h48v23l-6.2 25h-35.5l-6.2-25v-23zm-16 0v16H193.4c3.4-9.6 12.5-16 22.6-16h88zM120 16c63.5 0 104 19 104 32s-40.5 32-104 32S16 61 16 48s40.5-32 104-32zM16 72.9c.2.1.4.2.5.3 1.7 1.1 3.5 2.2 5.4 3.2l1.7.9c1.9 1 3.8 1.9 5.8 2.8l.8.4c2.3 1 4.7 1.9 7.2 2.8l2 .7c2.1.7 4.3 1.4 6.6 2.1l1.5.4c2.7.8 5.5 1.5 8.3 2.2.7.2 1.4.3 2.1.5l7.2 1.5 2.1.4c3 .5 6 1 9.1 1.5.6.1 1.3.2 1.9.3 2.6.4 5.2.7 7.8 1l2.4.3 9.6.9 1.3.1c2.8.2 5.7.3 8.5.5l2.6.1c3.2.1 6.5.2 9.7.2s6.5-.1 9.7-.2l2.6-.1c2.8-.1 5.7-.3 8.5-.5l1.3-.1c3.2-.2 6.4-.5 9.6-.9l2.4-.3c2.6-.3 5.2-.6 7.8-1l1.9-.3c3.1-.5 6.1-1 9.1-1.5l2.1-.4 7.2-1.5c.7-.2 1.4-.3 2.1-.5 2.8-.7 5.6-1.4 8.3-2.2l1.5-.4 6.6-2.1c.7-.2 1.4-.5 2-.7 2.5-.9 4.9-1.8 7.2-2.8l.8-.4c2-.9 4-1.8 5.8-2.8l1.7-.9c1.9-1 3.7-2.1 5.4-3.2.1-.1.3-.2.4-.3V112c-.4 3.1-1.9 6-4.4 8H216c-12.8 0-24.8 6.2-32.3 16.6-20.9 5.1-42.3 7.6-63.7 7.4-63.5 0-104-19-104-32V72.9zM224 240c0 13-40.5 32-104 32S16 253 16 240v-39.1c.1.1.3.2.4.3 1.7 1.1 3.5 2.2 5.4 3.2l1.7.9c1.9 1 3.8 1.9 5.8 2.8l.8.4c2.3 1 4.7 1.9 7.2 2.8l2 .7c2.1.7 4.3 1.4 6.6 2.1l1.5.4c2.7.8 5.5 1.5 8.3 2.2.7.2 1.4.3 2.1.5l7.2 1.5 2.1.4c3 .5 6 1 9.1 1.5.6.1 1.3.2 1.9.3 2.6.4 5.2.7 7.8 1l2.4.3 9.6.9 1.3.1c2.8.2 5.7.3 8.5.5l2.6.1c3.2.1 6.5.2 9.7.2s6.5-.1 9.7-.2l2.6-.1c2.8-.1 5.7-.3 8.5-.5l1.3-.1c3.2-.2 6.4-.5 9.6-.9l2.4-.3c2.6-.3 5.2-.6 7.8-1l1.9-.3c3.1-.5 6.1-1 9.1-1.5l2.1-.4 7.2-1.5c.7-.2 1.4-.3 2.1-.5 2.8-.7 5.6-1.4 8.3-2.2l1.5-.4 6.6-2.1c.7-.2 1.4-.5 2-.7 2.5-.9 4.9-1.8 7.2-2.8l.8-.4c2-.9 4-1.8 5.8-2.8l1.7-.9c1.9-1 3.7-2.1 5.4-3.2.1-.1.3-.2.4-.3V240zm0-64c0 13-40.5 32-104 32S16 189 16 176v-39.1c.1.1.3.2.4.3 1.7 1.1 3.5 2.2 5.4 3.2l1.7.9c1.9 1 3.8 1.9 5.8 2.8l.8.4c2.3 1 4.7 1.9 7.2 2.8l2 .7c2.1.7 4.3 1.4 6.6 2.1l1.5.4c2.7.8 5.5 1.5 8.3 2.2.7.2 1.4.3 2.1.5l7.2 1.5 2.1.4c3 .5 6 1 9.1 1.5.6.1 1.3.2 1.9.3 2.6.4 5.2.7 7.8 1l2.4.3 9.6.9 1.3.1c2.8.2 5.7.3 8.5.5l2.6.1c3.2.1 6.5.2 9.7.2 19 .1 37.9-1.7 56.5-5.4-.3 1.8-.5 3.6-.6 5.4v8h48v8zm128 280c0 4.4-3.6 8-8 8s-8-3.6-8-8V264h16v192zm0-208h-16v-48h16v48zm112-112v23.3l-80-6.7V136h80z"/></svg>