<svg xmlns="http://www.w3.org/2000/svg" viewBox="0 0 480 480"><path d="M408 0H72C32.3 0 0 32.3 0 72v256c0 39.7 32.3 72 72 72h20.2l-27.6 69c-1.2 3.1-.4 6.5 2 8.8s5.9 2.8 8.9 1.4L241.8 400H408c39.7 0 72-32.3 72-72V72c0-39.7-32.3-72-72-72zm56 328c0 30.9-25.1 56-56 56H240c-1.2 0-2.4.3-3.4.8L87 456l24.4-61c1-2.5.7-5.3-.8-7.5s-4-3.5-6.6-3.5H72c-30.9 0-56-25.1-56-56V72c0-30.9 25.1-56 56-56h336c30.9 0 56 25.1 56 56v256z"/><path d="M363.1 144h-70.8c-3.5 0-6.5-2.2-7.6-5.5l-21.9-67.3c-3.2-9.9-12.4-16.6-22.8-16.6s-19.6 6.7-22.8 16.6l-21.9 67.3c-1.1 3.3-4.1 5.5-7.6 5.5h-70.8c-10.4 0-19.6 6.7-22.8 16.6-3.2 9.9.3 20.7 8.7 26.8l57.3 41.6c2.8 2 4 5.7 2.9 9l-21.9 67.3c-3.2 9.9.3 20.7 8.7 26.8 8.4 6.1 19.8 6.1 28.2 0l57.3-41.6c2.8-2 6.6-2 9.4 0l57.3 41.6c8.4 6.2 19.8 6.2 28.2 0 8.5-6 12.1-16.9 8.7-26.8L317 238c-1.1-3.3.1-6.9 2.9-8.9l57.3-41.6c8.4-6.1 11.9-16.9 8.7-26.8-3.2-10-12.4-16.7-22.8-16.7zm4.7 30.5l-57.3 41.6c-8.4 6.1-12 16.9-8.7 26.8l21.9 67.3c1.1 3.3-.1 6.9-2.9 9-2.8 2-6.6 2-9.4 0l-57.3-41.6c-8.4-6.1-19.8-6.1-28.2 0l-57.3 41.6c-2.8 2-6.6 2-9.4 0-2.8-2-4-5.6-2.9-8.9l21.9-67.3c3.2-9.9-.3-20.7-8.7-26.8l-57.3-41.6c-2.8-2-4-5.7-2.9-9s4.2-5.5 7.6-5.5h70.8c10.4 0 19.6-6.7 22.8-16.6l21.9-67.3c1.1-3.3 4.1-5.5 7.6-5.5s6.5 2.2 7.6 5.5l21.9 67.3c3.2 9.9 12.4 16.6 22.8 16.6h70.8c3.5 0 6.5 2.2 7.6 5.5 1.1 3.2-.1 6.8-2.9 8.9z"/></svg>