<svg xmlns="http://www.w3.org/2000/svg" viewBox="0 0 500.1 512"><path d="M495 7.4L492.7 5c-5.6-5.7-14.4-6.6-21.2-2.3l-54.4 34.6-1-1c-10-10-26.2-10-36.2 0l-17.8 17.8-173.7 173.6-41.8 41.8c-4.8 4.8-7.5 11.3-7.5 18.1s2.7 13.3 7.5 18.1l17.8 17.8-126 126c-3.3 3.2-8.6 3.2-11.9 0l-12-12c-2.2-2.2-5.3-3-8.2-2.2-2.9.8-5.2 3.1-6 6s.1 6.1 2.2 8.2l12 12c4.8 4.8 11.3 7.5 18 7.5 6.8 0 13.2-2.7 18-7.5l126-126 17.8 17.8c4.8 4.8 11.3 7.5 18.1 7.5 1.1 0 2.3-.1 3.4-.2l73.5 142.2c2.5 4.8 7.2 8.1 12.5 8.9.9.1 1.8.2 2.6.2 4.5 0 8.8-1.8 12-5l5.6-5.6c12.2-12.2 15.8-30.6 9.1-46.5l-34.4-82 36.6 9.2c3.4.9 6.9 1.3 10.4 1.3 8.4 0 16.6-2.5 23.5-7.1l9-6c5.4-3.6 8.2-10 7.4-16.4-.9-6.4-5.3-11.8-11.5-13.9l-96.2-32 44.1-44.1 2.9 2.9c5.6 5.6 13.1 8.7 21 8.7 12 0 22.8-7.2 27.4-18.3 1.6-3.8 2.3-7.7 2.2-11.6h.3c12 0 22.9-7.2 27.5-18.3 1.6-3.8 2.3-7.7 2.2-11.6h.2c12 0 22.8-7.2 27.4-18.3 1.6-3.8 2.3-7.7 2.2-11.6h.3c12 0 22.8-7.2 27.4-18.3s2.1-23.9-6.4-32.4l-2.6-3 11.8-11.8c10-10 10-26.2 0-36.2l-1-1.1 34.6-54.4c4.3-6.7 3.3-15.5-2.4-21.1zm-99.5 156.9L374 185.8 353.9 206l-87.6 87.6-59.8-59.8L368.1 72.2l59.8 59.8-32.4 32.3zM158.6 293.7c-1.6-1.6-2.5-3.8-2.5-6s.9-4.4 2.5-6l35.8-35.8 59.8 59.8-35.8 35.8c-3.4 3.2-8.7 3.2-12.1 0l-47.7-47.8zM310 489.3l-5.5 5.7L231 353l27.4-27.4 57 136c4.1 9.4 1.9 20.4-5.4 27.7zm47.9-127.2c-6 4-13.3 5.2-20.3 3.5l-49-12.3-11.4-27.1 89.7 29.8-9 6.1zm-4.8-107.4c-5 4.8-12.9 4.8-17.9 0l-2.9-2.9 17.9-17.9 2.6 2.6.4.4c2.4 2.4 3.7 5.6 3.7 8.9-.1 3.3-1.5 6.5-3.8 8.9zm29.9-30c-4.9 4.9-12.9 4.9-17.9 0l-2.9-2.9.6-.6 17.3-17.3 2.9 2.9c4.9 5 4.9 13 0 17.9zm29.9-29.9c-5 4.8-12.9 4.8-17.9 0l-2.9-2.9 17.2-17.2.7-.7 3 2.9c4.9 5 4.9 13-.1 17.9zm30-29.9c-4.9 4.9-12.9 4.9-17.9 0l-3-2.9 17.9-17.9 2.9 2.9c5 4.9 5 12.9.1 17.9zm8.9-56.8L440 119.9l-59.8-59.8L392 48.3c1.6-1.6 3.8-2.5 6-2.5 2.3 0 4.4.9 6 2.5L451.8 96c3.3 3.3 3.3 8.7 0 12.1zm-1.4-37.6l-17.1-17.1-3.8-3.8L480.6 17l2.3 2.3-32.5 51.2zm-46.4 145z"/></svg>