<svg xmlns="http://www.w3.org/2000/svg" viewBox="0 0 49.9 47.8"><path d="M48.9 21.7c1-1 1.3-2.4.9-3.7-.4-1.3-1.5-2.2-2.9-2.4l-12.1-1.8c-.5-.1-1-.4-1.2-.9L28.2 2C27.6.8 26.4 0 25 0c-1.4 0-2.6.8-3.2 2l-5.4 11c-.2.5-.7.8-1.2.9L3.1 15.6C1.7 15.8.6 16.7.2 18c-.4 1.3-.1 2.7.9 3.7l8.7 8.5c.4.4.5.9.5 1.4l-2.1 12c-.2 1.4.3 2.7 1.4 3.6 1.1.8 2.6.9 3.8.3l10.8-5.7c.5-.2 1-.2 1.5 0l10.8 5.7c.5.3 1.1.4 1.7.4.7 0 1.5-.2 2.1-.7 1.1-.8 1.7-2.1 1.4-3.5l-2.1-12c-.1-.5.1-1 .5-1.4l8.8-8.6zM37.7 32l2.1 12c.1.6-.1 1.2-.6 1.5-.5.4-1.1.4-1.7.1L26.6 40c-.5-.3-1.1-.4-1.7-.4s-1.1.1-1.7.4l-10.8 5.7c-.5.3-1.2.2-1.7-.1-.5-.4-.7-.9-.6-1.5l2.1-12c.2-1.2-.2-2.3-1-3.2l-8.7-8.5c-.4-.4-.6-1-.4-1.6.2-.6.7-1 1.3-1.1l12.1-1.8c1.2-.2 2.2-.9 2.7-2l5.4-11c.2-.6.8-.9 1.4-.9.6 0 1.1.3 1.4.9l5.4 11c.5 1.1 1.5 1.8 2.7 2l12.1 1.8c.6.1 1.1.5 1.3 1.1.2.6 0 1.2-.4 1.6l-8.7 8.5c-.9.7-1.3 1.9-1.1 3.1z"/></svg>