<svg xmlns="http://www.w3.org/2000/svg" viewBox="0 0 450.9 512"><path d="M329.4 441c-1.8-6.4-8.4-10.2-14.9-8.4l-3.3.9c-26.1 6.9-55.8 10.6-85.8 10.6-47.8 0-93.7-9.2-125.9-25.4C75 406.4 68.4 395.5 67.9 393c-.1-6.6-5.5-11.9-12.1-11.9-6.7 0-12.1 5.4-12.1 12.1 0 15.4 16.8 33 45 47.1 35.5 17.7 85.3 27.9 136.7 27.9 32 0 63.9-3.9 92-11.4 1.2-.3 2.4-.6 3.5-1 6.5-1.8 10.3-8.4 8.5-14.8zm36.7-12.6c-.2-.8-.4-1.5-.7-2.3-.3-.7-.7-1.4-1.1-2.1-.4-.7-.9-1.3-1.5-1.8-.6-.6-1.2-1.1-1.8-1.5-.7-.4-1.4-.8-2.1-1.1-.7-.3-1.5-.5-2.3-.7-1.6-.3-3.2-.3-4.7 0-.8.1-1.5.4-2.3.7s-1.4.7-2.1 1.1c-.7.4-1.3.9-1.8 1.5-.6.6-1.1 1.2-1.5 1.8-.4.7-.8 1.4-1.1 2.1-.3.7-.5 1.5-.7 2.3-.2.8-.2 1.6-.2 2.4s.1 1.6.2 2.4c.2.8.4 1.5.7 2.3.3.7.7 1.4 1.1 2.1.4.7.9 1.3 1.5 1.8.6.6 1.2 1.1 1.8 1.5.7.4 1.4.8 2.1 1.1.7.3 1.5.5 2.3.7.8.2 1.6.2 2.4.2.8 0 1.6-.1 2.4-.2.8-.2 1.5-.4 2.3-.7.7-.3 1.4-.7 2.1-1.1.7-.4 1.3-.9 1.8-1.5.6-.6 1-1.2 1.5-1.8.4-.7.8-1.4 1.1-2.1.3-.7.5-1.5.7-2.3s.2-1.6.2-2.4c0-.8-.1-1.6-.3-2.4z"/><path d="M362.6 298.5c7-11.2 10.7-23.2 10.7-35.6 0-19.3-9.2-38-26.2-54 17.4-13.3 26.8-29.5 26.8-46.8 0-32.4-33.3-60.1-85.2-72.9 6.9-8.3 10.9-17.8 10.9-27.9C299.5 26.9 254.7 0 197.4 0 140.1 0 95.3 26.9 95.3 61.3c0 16.5 10.4 31.3 27.5 42.2C93.7 118.3 77 139.2 77 162.1c0 8 2 15.8 5.9 23.2-39.3 19.1-61.5 46.8-61.5 77.6 0 20.2 9.7 39.3 27.8 55.5-32 20.9-49.3 47-49.3 74.9C0 459.8 99 512 225.5 512S451 459.8 451 393.2c-.1-37.9-32.8-72.6-88.4-94.7zM119.4 61.3c0-17.6 32-37.1 78-37.1s78 19.6 78 37.1c0 8.2-7.1 16.9-19.3 23.8-.3.1-.7.3-1 .5-13.3 7.2-30.7 11.6-49.5 12.6h-.5c-1.2.1-2.4.1-3.6.1-1.4 0-2.8.1-4.1.1-1.7 0-3.4 0-5.1-.1h-.7c-12.2-.5-24.1-2.4-34.7-5.6-.3-.1-.6-.1-.9-.2-22.6-7.2-36.6-19.6-36.6-31.2zm34.2 55.5c.2.1.5.1.7.2 1.4.4 2.9.8 4.3 1.1.1 0 .2.1.3.1 10.1 2.4 20.9 3.9 32.4 4.3h.5c1.9.1 3.7.1 5.6.1 1.6 0 3.3 0 4.9-.1.6 0 1.3 0 1.9-.1 1 0 1.9-.1 2.9-.1.8 0 1.6-.1 2.4-.2.8-.1 1.6-.1 2.3-.2.9-.1 1.7-.1 2.6-.2.7-.1 1.3-.1 2-.2.9-.1 1.9-.2 2.8-.3.6-.1 1.2-.2 1.7-.2 1-.1 1.9-.3 2.9-.4.5-.1 1-.2 1.5-.2 1.6-.3 3.1-.5 4.6-.8.9-.2 1.8-.3 2.7-.5l1.5-.3c1.1-.2 2.1-.5 3.1-.7.3-.1.7-.2 1-.3 1.2-.3 2.5-.6 3.7-1 .1 0 .2-.1.4-.1 7.4-2.1 14.3-4.7 20.7-7.8 49.7 7.5 86.8 30.1 86.8 53.4 0 12.3-10.5 25-29 35.2-1.4.8-2.9 1.6-4.4 2.3-.4.2-.9.4-1.3.6-1.2.6-2.3 1.1-3.5 1.7-.3.2-.7.3-1 .4l-4.2 1.8c-.1 0-.2.1-.3.1-20.7 8.2-46.3 13.1-73.1 13.9h-.6c-2.2.1-4.5.1-6.8.1-1.9 0-3.8 0-5.7-.1h-1.8c-1.3 0-2.6-.1-3.9-.1-.7 0-1.3-.1-2-.1l-5.1-.3c-.8-.1-1.7-.1-2.5-.2-.9-.1-1.9-.2-2.8-.2-1-.1-1.9-.2-2.9-.3-.8-.1-1.7-.2-2.5-.3-1.5-.2-3-.4-4.4-.5-1-.1-2-.3-2.9-.4-.8-.1-1.7-.3-2.5-.4-1-.2-2.1-.3-3.1-.5-.6-.1-1.3-.2-1.9-.3-17.5-3.1-33.4-8.2-46.8-14.9-8.5-4.3-15.6-9-20.9-14-.2-.1-.3-.3-.5-.4-.5-.4-.9-.9-1.4-1.4-.3-.3-.6-.7-1-1-6.2-6.6-9.5-13.7-9.5-20.6-.3-17.3 20.1-34.9 52.1-45.6zm-107.9 146c0-21.9 19.7-43.4 53-58.3 2.3 2.1 4.9 4.1 7.6 6 .5.4 1.1.8 1.6 1.1.2.1.4.3.6.4 23.2 15.9 57.2 26.4 95.5 29.3h.6c2.2.2 4.5.3 6.7.4h.2c2 .1 4.1.2 6.1.2h1.5c2.1 0 4.3.1 6.4.1 33.6 0 65.2-5.7 90.9-16.3.3-.1.6-.2.8-.4 1.4-.6 2.9-1.2 4.3-1.8.6-.3 1.2-.5 1.7-.8.7-.3 1.5-.7 2.2-1 11.9 9.5 23.7 23.4 23.7 40.9 0 11.4-5.1 22.3-14.3 32.2-.3.2-.6.5-.8.8-24.1 25.3-72.7 42.2-125.8 44.3h-.4c-1.5.1-2.9.1-4.4.1h-14.1c-1 0-2.1-.1-3.1-.1h-.6c-37.7-1.5-72.1-10.5-97.4-23.9-3.8-2-7.4-4.2-10.8-6.5-.2-.1-.3-.2-.5-.3-19.5-12.9-31.2-29.1-31.2-46.4zM371 457.9c-38.7 19.3-90.3 30-145.5 30s-106.8-10.6-145.5-30c-35.5-17.7-55.8-41.3-55.8-64.7 0-21.4 16.4-42.4 46.3-59.6.2.1.5.3.8.4.6.4 1.3.8 2 1.1.4.3.9.5 1.3.7.4.2.8.5 1.3.7.1.1.3.1.4.2 1.7.9 3.4 1.8 5.2 2.7.4.2.8.4 1.3.6 1.6.8 3.3 1.6 5 2.4.6.3 1.2.6 1.9.8 1.5.7 3.1 1.3 4.6 2 .9.4 1.8.7 2.7 1.1 1 .4 2.1.8 3.2 1.2 1.5.6 3 1.1 4.5 1.6.4.1.8.3 1.2.4 2.2.8 4.4 1.5 6.7 2.2h.1c14.5 4.5 30.1 7.9 46.3 9.9 1.1.1 2.1.3 3.2.4 1.2.1 2.4.3 3.6.4 1.8.2 3.5.4 5.3.5.9.1 1.8.1 2.7.2 2.1.2 4.1.3 6.2.4.6 0 1.2.1 1.8.1 2.4.1 4.7.2 7.1.3h.8c2.6.1 5.3.1 8 .1 2.5 0 5 0 7.5-.1.7 0 1.5 0 2.2-.1 2-.1 4.1-.1 6.1-.2 1.1-.1 2.1-.1 3.2-.2 1.5-.1 3.1-.2 4.6-.3l3.9-.3c.7-.1 1.4-.1 2.2-.2 30.4-2.9 58.7-10.3 82.5-21.5 0 0 .1 0 .1-.1 3.2-1.5 6.4-3.1 9.4-4.7 10.4-5.7 19.4-12 26.9-18.8 50.1 18 80.9 46.5 80.9 75.3-.4 23.8-20.7 47.3-56.2 65.1z"/><path d="M169.2 172.6c-.2-.8-.4-1.5-.7-2.3-.3-.7-.7-1.4-1.1-2.1-.4-.7-.9-1.3-1.5-1.8s-1.2-1.1-1.8-1.5c-.7-.4-1.4-.8-2.1-1.1-.7-.3-1.5-.5-2.3-.7-1.6-.3-3.2-.3-4.7 0-.8.1-1.5.4-2.3.7-.7.3-1.4.7-2.1 1.1-.7.4-1.3.9-1.8 1.5s-1.1 1.2-1.5 1.8c-.4.7-.8 1.4-1.1 2.1-.3.7-.5 1.5-.7 2.3-.2.8-.2 1.6-.2 2.4 0 3.2 1.3 6.3 3.5 8.5.6.6 1.2 1.1 1.8 1.5.7.4 1.4.8 2.1 1.1.7.3 1.5.5 2.3.7.8.2 1.6.2 2.4.2s1.6-.1 2.4-.2c.8-.1 1.5-.4 2.3-.7.7-.3 1.4-.7 2.1-1.1.7-.4 1.3-.9 1.8-1.5s1.1-1.2 1.5-1.8c.4-.7.8-1.4 1.1-2.1.3-.7.5-1.5.7-2.3.2-.8.2-1.6.2-2.4s-.2-1.6-.3-2.3zm155.6-18.8c-4.6-4.9-12.2-5.1-17.1-.5-1.7 1.6-7 5.9-18.6 10.4-17.5 6.9-40.1 10.7-63.7 10.7-10.1 0-20.1-.7-29.6-2.1-6.6-.9-12.7 3.6-13.7 10.2-.9 6.6 3.6 12.7 10.2 13.7 10.7 1.5 21.8 2.3 33.1 2.3 26.5 0 52.3-4.4 72.5-12.3 14.1-5.5 22.1-11.4 26.3-15.3 4.9-4.6 5.2-12.3.6-17.1z"/></svg>