<svg xmlns="http://www.w3.org/2000/svg" viewBox="0 0 512 512"><path d="M512 34.9c0-9.3-3.6-18.1-10.2-24.7S486.5 0 477.1 0c-9.3 0-18.1 3.7-24.7 10.3-2.8 2.8-7.9 8.8-10.7 12.2-2.9 3.5-2.4 8.8 1.1 11.7 3.5 2.9 8.8 2.4 11.7-1.1 4.4-5.3 8-9.4 9.6-11.1 3.5-3.5 8.1-5.4 13-5.5h.1c4.9 0 9.4 1.9 12.8 5.3 3.4 3.4 5.3 8 5.3 12.9s-2 9.6-5.5 13c-3.1 3.1-13.9 11.7-29.3 22.4-9.1-15.6-26-26.1-45.4-26.1H293.8c-16.4 0-31.8 6.4-43.4 18L7.6 305C2.7 309.9 0 316.4 0 323.3s2.7 13.5 7.6 18.4l162.7 162.7c5.1 5.1 11.7 7.6 18.4 7.6s13.3-2.5 18.4-7.6l242.8-242.8c11.6-11.6 18-27 18-43.4V96.7c0-3.6-.4-7.1-1.1-10.5 17.6-12.1 30.4-22.2 34.9-26.7C508.3 53 512 44.2 512 34.9zm-60.8 183.3c0 12-4.7 23.2-13.1 31.7L195.3 492.7c-3.7 3.7-9.6 3.7-13.3 0L19.3 330c-1.8-1.8-2.8-4.1-2.8-6.6s1-4.9 2.8-6.6L262.1 73.9c8.5-8.5 19.7-13.1 31.7-13.1h121.5c13.6 0 25.5 7.6 31.6 18.9-9.8 6.5-20.8 13.4-32.4 20.2-.4-.4-.7-.8-1.1-1.2-13.6-13.6-35.7-13.6-49.3 0s-13.6 35.7 0 49.3c6.8 6.8 15.7 10.2 24.6 10.2 8.9 0 17.8-3.4 24.6-10.2 9.1-9.1 12.1-21.9 9-33.5 10.1-5.9 19.8-11.9 28.8-17.7v.1l.1 121.3zM381.3 127c1.5 2.9 4.4 4.6 7.4 4.6 1.3 0 2.5-.3 3.7-.9 4.9-2.4 9.7-5 14.5-7.6 0 4.7-1.7 9.5-5.3 13.1-7.1 7.1-18.7 7.1-25.8 0-7.1-7.1-7.1-18.7 0-25.8 3.6-3.6 8.2-5.3 12.9-5.3 3.7 0 7.4 1.1 10.5 3.4-4.7 2.6-9.5 5.1-14.3 7.5-4 1.9-5.6 6.9-3.6 11z"/><path d="M247.2 169c-4.6 0-8.3 3.7-8.3 8.3v175.2c0 4.6 3.7 8.3 8.3 8.3s8.3-3.7 8.3-8.3V177.3c0-4.6-3.8-8.3-8.3-8.3zm-38 71.2c-13.6-13.6-35.7-13.6-49.3 0-13.6 13.6-13.6 35.7 0 49.3 6.8 6.8 15.7 10.2 24.6 10.2 8.9 0 17.8-3.4 24.6-10.2 6.6-6.6 10.2-15.3 10.2-24.6s-3.5-18.1-10.1-24.7zm-11.7 37.5c-7.1 7.1-18.7 7.1-25.8 0-7.1-7.1-7.1-18.7 0-25.8 3.6-3.6 8.2-5.3 12.9-5.3s9.3 1.8 12.9 5.3c3.4 3.4 5.3 8 5.3 12.9s-1.9 9.5-5.3 12.9zm136.9-37.5c-13.6-13.6-35.7-13.6-49.3 0-13.6 13.6-13.6 35.7 0 49.3 6.8 6.8 15.7 10.2 24.6 10.2 8.9 0 17.8-3.4 24.6-10.2 13.6-13.6 13.6-35.7.1-49.3zm-11.8 37.5c-7.1 7.1-18.7 7.1-25.8 0-7.1-7.1-7.1-18.7 0-25.8 3.6-3.6 8.2-5.3 12.9-5.3s9.3 1.8 12.9 5.3c7.1 7.2 7.1 18.7 0 25.8z"/></svg>