<svg xmlns="http://www.w3.org/2000/svg" viewBox="0 0 480 464"><path d="M49.1 340c-3.4 6-33.1 58.6-33.1 84 0 22.1 17.9 40 40 40s40-17.9 40-40c0-25.4-29.7-78-33.1-84-1.5-2.3-4.1-3.7-6.9-3.7s-5.4 1.4-6.9 3.7zM56 448c-13.3 0-24-10.7-24-24 0-14.1 13.9-43.9 24-63.2 10.1 19.3 24 49.1 24 63.2 0 13.3-10.7 24-24 24zM472 96h-48c-4.4 0-8 3.6-8 8v24H308.5l-11.9-42.2c-1-3.4-4.1-5.8-7.7-5.8H264V48h56c13.3 0 24-10.7 24-24S333.3 0 320 0H160c-13.3 0-24 10.7-24 24s10.7 24 24 24h56v32h-24.9c-3.6 0-6.7 2.4-7.7 5.8L171.5 128H104C46.6 128.1.1 174.6 0 232v64c0 4.4 3.6 8 8 8h96c4.4 0 8-3.6 8-8v-32c0-13.3 10.7-24 24-24h9.4c7.1 36.3 42.4 64 84.8 64h19.6c42.5 0 77.8-27.7 84.8-64H416v24c0 4.4 3.6 8 8 8h48c4.4 0 8-3.6 8-8V104c0-4.4-3.6-8-8-8zM152 24c0-4.4 3.6-8 8-8h160c4.4 0 8 3.6 8 8s-3.6 8-8 8H160c-4.4 0-8-3.6-8-8zm80 24h16v32h-16V48zM96 264v24H16v-56c.1-48.6 39.4-87.9 88-88h63l-22.6 80H136c-22.1 0-40 17.9-40 40zm153.8 24h-19.6c-38.3 0-69.6-26.9-70.2-60.3L197.2 96h85.7L320 227.7c-.7 33.4-31.9 60.3-70.2 60.3zm85.8-64L313 144h103v80h-80.4zM464 256h-32V112h32v144z"/></svg>