<svg xmlns="http://www.w3.org/2000/svg" viewBox="0 0 310.7 457"><path d="M310.7 240.5c0-17.3-13.1-31.9-30.3-33.8V92.3c18.5-2 32-18.6 30-37.1-1.8-17.3-16.6-30.4-34-30.2h-150V7.5c0-4.4-3.6-7.5-8-7.5h-66c-4.4 0-8 3.1-8 7.5V25h-10C15.7 24.8.4 39.7.1 58.3c-.2 17.4 12.9 32.1 30.2 34v114.4c-18.7 2-32.2 18.8-30.1 37.5 1.7 15.9 14.3 28.4 30.1 30.1v114.4C11.5 391-1.9 408 .4 426.8 2.5 444 17 457 34.3 457h242c18.9-.1 34.2-15.4 34.2-34.4 0-17.3-13-31.9-30.2-33.9V274.3c17.3-1.9 30.3-16.5 30.4-33.8zM60.3 16h50v9h-50v-9zm-44 43c0-9.9 8.1-18 18-18h242c9.9 0 18 8.1 18 18s-8.1 18-18 18h-242c-9.9 0-18-8.1-18-18zm248 34v114h-218V93h218zm30 330c0 9.9-8.1 18-18 18h-242c-9.9 0-18-8.1-18-18s8.1-18 18-18h242c10 0 18 8.1 18 18zm-248-34V275h218v114h-218zm230-130h-242c-9.9 0-18-8.1-18-18s8.1-18 18-18h242c9.9 0 18 8.1 18 18s-8 18-18 18z"/></svg>