<svg version="1.1" id="Layer_1" xmlns="http://www.w3.org/2000/svg" x="0" y="0" viewBox="0 0 511.7 512" xml:space="preserve"><style/><path d="M412 292.2V62c0-34.2-27.8-62-62-62s-62 27.8-62 62v230.2c-22.1 13.6-39.3 34-48.7 58.2-2 5.1.6 10.9 5.7 12.9 5.1 2 10.9-.6 12.9-5.7 8.4-21.7 24.3-39.8 44.8-50.9 3.2-1.8 5.2-5.1 5.2-8.8V62c0-23.1 18.8-42 42-42 23.1 0 42 18.8 42 42v236c0 3.7 2 7 5.2 8.8 31.7 17.3 51.5 50.5 51.5 86.6 0 54.4-44.3 98.6-98.6 98.6-41 0-77.1-24.7-92-62.9-2-5.1-7.8-7.7-12.9-5.7s-7.7 7.8-5.7 12.9c8.7 22.4 23.8 41.4 43.6 55s43 20.7 67 20.7c65.4 0 118.6-53.2 118.6-118.6.1-41.5-21.5-79.7-56.6-101.2z"/><path d="M350.1 87.4c-5.5 0-10 4.5-10 10v227.7c-33.3 4.9-59 33.6-59 68.3 0 38.1 31 69 69 69 38.1 0 69-31 69-69 0-34.7-25.7-63.4-59-68.3V97.4c0-5.5-4.5-10-10-10zm49 306c0 27-22 49-49 49s-49-22-49-49 22-49 49-49c27-.1 49 21.9 49 49zM449.8 115h52c5.5 0 10-4.5 10-10s-4.5-10-10-10h-52c-5.5 0-10 4.5-10 10s4.5 10 10 10zm51.9 26.2h-52c-5.5 0-10 4.5-10 10s4.5 10 10 10h52c5.5 0 10-4.5 10-10s-4.4-10-10-10zm0 46.2h-52c-5.5 0-10 4.5-10 10s4.5 10 10 10h52c5.5 0 10-4.5 10-10s-4.4-10-10-10zm0 46.1h-52c-5.5 0-10 4.5-10 10s4.5 10 10 10h52c5.5 0 10-4.5 10-10s-4.4-10-10-10zM136 99.1c-24.1 0-46.8 11.7-60.9 31.2-3.2 4.5-2.2 10.7 2.3 14 4.5 3.2 10.7 2.2 14-2.3 10.4-14.3 27.1-22.9 44.7-22.9 30.4 0 55.1 24.7 55.1 55.1s-24.7 55.1-55.1 55.1c-17.7 0-34.4-8.6-44.7-22.9-3.2-4.5-9.5-5.5-14-2.3s-5.5 9.5-2.3 14c14.1 19.5 36.9 31.2 60.9 31.2 41.4 0 75.1-33.7 75.1-75.1S177.4 99.1 136 99.1zm0-17.2c5.5 0 10-4.5 10-10V48.3c0-5.5-4.5-10-10-10s-10 4.5-10 10V72c0 5.4 4.5 9.9 10 9.9zM56.6 109c2 2 4.5 2.9 7.1 2.9s5.1-1 7.1-2.9c3.9-3.9 3.9-10.2 0-14.1L54 78.1c-3.9-3.9-10.2-3.9-14.1 0-3.9 3.9-3.9 10.2 0 14.1L56.6 109zm171.8 65.3c0 5.5 4.5 10 10 10H262c5.5 0 10-4.5 10-10s-4.5-10-10-10h-23.7c-5.5 0-9.9 4.4-9.9 10zm-20-62.4c2.6 0 5.1-1 7.1-2.9l16.7-16.7c3.9-3.9 3.9-10.2 0-14.1-3.9-3.9-10.2-3.9-14.1 0l-16.7 16.7c-3.9 3.9-3.9 10.2 0 14.1 1.9 1.9 4.4 2.9 7 2.9zM43.7 174.3c0-5.5-4.5-10-10-10H10c-5.5 0-10 4.5-10 10s4.5 10 10 10h23.7c5.5 0 10-4.5 10-10zm92.3 92.3c-5.5 0-10 4.5-10 10v23.7c0 5.5 4.5 10 10 10s10-4.5 10-10v-23.7c0-5.5-4.5-10-10-10zm96.2-10.3l-16.7-16.7c-3.9-3.9-10.2-3.9-14.1 0-3.9 3.9-3.9 10.2 0 14.1l16.7 16.7c2 1.9 4.5 2.9 7.1 2.9s5.1-1 7.1-2.9c3.8-3.9 3.8-10.2-.1-14.1zM56.6 239.6l-16.7 16.7c-3.9 3.9-3.9 10.2 0 14.1 1.9 2 4.5 2.9 7.1 2.9s5.1-1 7.1-2.9l16.7-16.7c3.9-3.9 3.9-10.2 0-14.1s-10.3-3.9-14.2 0zm194.9 153.8c0-5.5-4.5-10-10-10s-10 4.5-10 10 4.5 10 10 10 10-4.5 10-10z"/><path d="M60.9 174.3c0 5.5 4.5 10 10 10s10-4.5 10-10-4.5-10-10-10-10 4.5-10 10z"/></svg>