<svg xmlns="http://www.w3.org/2000/svg" viewBox="0 0 47 60"><path d="M32.4 0H0v60h47V14.6L32.4 0zm.6 3.4L43.6 14H33V3.4zM2 58V2h29v14h14v42H2z"/><path d="M36 21H20c-.6 0-1 .4-1 1s.4 1 1 1h16c.6 0 1-.4 1-1s-.4-1-1-1zm-19.6-2.8l-4.3 3.4-1.4-1.4c-.4-.4-1-.4-1.4 0s-.4 1 0 1.4l2 2c.2.2.5.3.7.3.2 0 .4-.1.6-.2l5-4c.4-.3.5-1 .2-1.4-.4-.4-1-.4-1.4-.1zM36 32H20c-.6 0-1 .4-1 1s.4 1 1 1h16c.6 0 1-.4 1-1s-.4-1-1-1zm-19.6-2.8l-4.3 3.4-1.4-1.4c-.4-.4-1-.4-1.4 0s-.4 1 0 1.4l2 2c.2.2.5.3.7.3.2 0 .4-.1.6-.2l5-4c.4-.3.5-1 .2-1.4-.4-.4-1-.4-1.4-.1zM36 43H20c-.6 0-1 .4-1 1s.4 1 1 1h16c.6 0 1-.4 1-1s-.4-1-1-1zm-19.6-2.8l-4.3 3.4-1.4-1.4c-.4-.4-1-.4-1.4 0s-.4 1 0 1.4l2 2c.2.2.5.3.7.3.2 0 .4-.1.6-.2l5-4c.4-.3.5-1 .2-1.4-.4-.4-1-.4-1.4-.1z"/></svg>