<svg xmlns="http://www.w3.org/2000/svg" viewBox="0 0 465 430"><path d="M434.4 4.9c-1.2-3-4.2-4.9-7.4-4.9H38c-3.2 0-6.1 1.9-7.4 4.9l-30 72c-1.7 4.1.2 8.8 4.3 10.5 1 .4 2 .6 3.1.6h17.5v334c0 4.4 3.6 8 8 8h36c4.4 0 8-3.6 8-8V165h57v12.3c-.1 4.1 3.1 7.5 7.2 7.7h48.8v32H138c-4.4 0-8.5 3.6-8.5 8v197c0 4.4 4.1 8 8.5 8h189c4.4 0 7.5-3.6 7.5-8V225c0-4.4-3.1-8-7.5-8H206.5v-32h116.3c4.1.1 7.5-3.1 7.7-7.2V165h57v257c0 4.4 3.6 8 8 8h36c4.4 0 8-3.6 8-8V88H457c4.4 0 8-3.6 8-8 0-1.1-.2-2.1-.6-3.1l-30-72zM145.5 334v-24h173v24h-173zm173 16v24h-173v-24h173zm-173-56v-24h173v24h-173zm0 120v-24h173v24h-173zm173-160h-173v-21h173v21zm-277 160V88h20v326h-20zm109-245v-25h40v25h-40zm164 0h-108v-25h108v25zm16-20v-13c.2-4.3-3.2-7.8-7.4-8H142.2c-4.3 0-7.7 3.5-7.7 7.8V149h-57V88h310v61h-57zm93 265h-20V88h20v326zM20 72l23.3-56h378.3L445 72H20z"/></svg>