<?xml version="1.0" encoding="utf-8"?>
<!-- Generator: Adobe Illustrator 22.0.0, SVG Export Plug-In . SVG Version: 6.00 Build 0)  -->
<svg version="1.1"  fill="#79b53d" id="Capa_1" xmlns="http://www.w3.org/2000/svg" xmlns:xlink="http://www.w3.org/1999/xlink" x="0px" y="0px"
	 viewBox="0 0 470 470" style="enable-background:new 0 0 470 470;" xml:space="preserve">
<style type="text/css">
	.st0{fill:#238A58;}
</style>
<g>
	<path d="M57.5,219.5c-2.5,0-4.5-2-4.5-4.5V47.5C53,23,73,3,97.5,3h237.9c24.5,0,44.5,20,44.5,44.5v138h0.3v9h-0.3V215
		c0,2.5-2,4.5-4.5,4.5h-29.9c-0.1,0-0.1,0-0.2,0c-0.1,0-0.2,0-0.3,0l-0.2,0c-0.1,0-0.2,0-0.2,0l-0.2,0c-0.1,0-0.2,0-0.2-0.1
		c-0.1,0-0.1,0-0.2-0.1c-0.1,0-0.3-0.1-0.4-0.2l-0.2-0.1c-0.1,0-0.1-0.1-0.2-0.1l-0.2-0.1c-0.1-0.1-0.2-0.1-0.2-0.2l-0.1-0.1
		l-0.7-0.5h-0.8v-30.3h-0.2v-12h0.2v-22.5h-0.2V47.5c0-2.9-2.6-5.5-5.5-5.5H97.5c-2.9,0-5.5,2.6-5.5,5.5v113h0.2c-0.2,1-0.3,2-0.2,3
		c-0.4,1.4-0.5,2.9-0.2,4.4c-0.2,0.7-0.3,1.5-0.3,2.3v0.2c0,0.9,0.2,1.8,0.5,2.7v45h-1l-0.7,0.5l-0.2,0.1c-0.2,0.1-0.3,0.2-0.5,0.3
		l-0.1,0c-0.2,0.1-0.4,0.2-0.5,0.2l-0.1,0c-0.2,0-0.3,0.1-0.5,0.1l-0.1,0c-0.3,0-0.5,0.1-0.7,0.1H57.5z M335.4,33
		c7.9,0,14.5,6.6,14.5,14.5v163h21v-163c0-19.6-15.9-35.5-35.5-35.5H97.5C77.9,12,62,27.9,62,47.5v163h21v-163
		C83,39.6,89.6,33,97.5,33H335.4z"/>
</g>
</svg>
