<?xml version="1.0" encoding="utf-8"?>
<!-- Generator: Adobe Illustrator 22.0.0, SVG Export Plug-In . SVG Version: 6.00 Build 0)  -->
<svg version="1.1" fill="#79b53d" id="Layer_1" xmlns="http://www.w3.org/2000/svg" xmlns:xlink="http://www.w3.org/1999/xlink" x="0px" y="0px"
	 viewBox="0 0 463 463" style="enable-background:new 0 0 463 463;" xml:space="preserve">

<g>
	<path  d="M447.5,80h-16c-4.1,0-7.5,3.4-7.5,7.5s3.4,7.5,7.5,7.5h16c4.1,0,7.5-3.4,7.5-7.5S451.6,80,447.5,80z"/>
	<path  d="M399.5,80H232.6c36.1-6.6,77.4-16,121.1-29.6c4-1.2,6.2-5.4,4.9-9.4s-5.4-6.2-9.4-4.9
		C235.9,71.3,138.3,78.4,111,79.7v-0.2c0-13-10.5-23.5-23.5-23.5S64,66.5,64,79.5v32c0,4.1,3.4,7.5,7.5,7.5H80v9h-8.5
		c-1.3,0-2.6,0.3-3.7,1l-43.9,25.1C14.1,159.7,8,170.2,8,181.4v250.1C8,448.9,22.1,463,39.5,463h96c17.4,0,31.5-14.1,31.5-31.5
		V181.4c0-11.3-6.1-21.8-15.9-27.4L107.2,129c-1.1-0.6-2.4-1-3.7-1H95v-9h8.5c4.1,0,7.5-3.4,7.5-7.5V95.3
		c27.3,1.3,124.8,8.4,238.3,43.6c0.7,0.2,1.5,0.3,2.2,0.3c3.2,0,6.2-2.1,7.2-5.3c1.2-4-1-8.2-4.9-9.4c-43.7-13.6-85-23-121.1-29.6
		h166.9c4.1,0,7.5-3.4,7.5-7.5S403.6,80,399.5,80L399.5,80z M23,350.4c22.6-3.6,40-23.3,40-46.9c0-4.1-3.4-7.5-7.5-7.5
		s-7.5,3.4-7.5,7.5c0,15.3-10.7,28.2-25,31.6v-63.2c4.3,1,8.4,2.9,12,5.6c1.3,1,2.9,1.5,4.5,1.5c2.3,0,4.5-1,6-3
		c2.5-3.3,1.8-8-1.5-10.5c-6.3-4.7-13.4-7.7-21-8.9v-17.1c32,3.7,57,31,57,64s-25,60.3-57,64V350.4L23,350.4z M143.7,167.1
		c5.1,2.9,8.3,8.4,8.3,14.3v250.1c0,9.1-7.4,16.5-16.5,16.5h-96c-9.1,0-16.5-7.4-16.5-16.5v-48.9c40.3-3.8,72-37.8,72-79.1
		s-31.7-75.3-72-79.1v-42.9c0-5.9,3.2-11.4,8.3-14.3L73.5,143h28L143.7,167.1z M96,104H79V79.5c0-4.7,3.8-8.5,8.5-8.5
		s8.5,3.8,8.5,8.5V104z"/>
	<path  d="M431.5,21.8c1,0,1.9-0.2,2.9-0.6c5.4-2.2,10.8-4.6,16.1-6.9c3.8-1.7,5.5-6.1,3.8-9.9c-1.7-3.8-6.1-5.5-9.9-3.8
		c-5.2,2.3-10.5,4.6-15.9,6.8c-3.8,1.6-5.6,6-4,9.8C425.8,20.1,428.6,21.8,431.5,21.8L431.5,21.8z"/>
	<path  d="M383.5,40.2c0.8,0,1.7-0.1,2.5-0.4c5.4-1.9,10.8-3.8,16.1-5.8c3.9-1.4,5.9-5.8,4.4-9.6s-5.8-5.9-9.6-4.4
		c-5.2,1.9-10.6,3.9-15.9,5.7c-3.9,1.4-6,5.6-4.6,9.6C377.5,38.3,380.4,40.2,383.5,40.2L383.5,40.2z"/>
	<path  d="M450.5,160.6c-5.3-2.3-10.8-4.7-16.1-6.9c-3.8-1.6-8.2,0.2-9.8,4s0.2,8.2,4,9.8c5.3,2.2,10.6,4.5,15.9,6.8
		c1,0.4,2,0.6,3,0.6c2.9,0,5.6-1.7,6.9-4.5C456,166.7,454.3,162.3,450.5,160.6z"/>
	<path  d="M402.1,141c-5.3-1.9-10.6-3.9-16-5.8c-3.9-1.4-8.2,0.7-9.6,4.6c-1.4,3.9,0.7,8.2,4.6,9.6
		c5.3,1.9,10.6,3.8,15.8,5.7c0.9,0.3,1.7,0.5,2.6,0.5c3,0,5.9-1.9,7-4.9C407.9,146.8,405.9,142.5,402.1,141L402.1,141z"/>
	<path  d="M127.5,207c4.1,0,7.5-3.4,7.5-7.5v-16c0-4.1-3.4-7.5-7.5-7.5s-7.5,3.4-7.5,7.5v16
		C120,203.6,123.4,207,127.5,207z"/>
	<path  d="M127.5,335c4.1,0,7.5-3.4,7.5-7.5v-96c0-4.1-3.4-7.5-7.5-7.5s-7.5,3.4-7.5,7.5v96
		C120,331.6,123.4,335,127.5,335z"/>
</g>
</svg>
