<?xml version="1.0" encoding="utf-8"?>
<!-- Generator: Adobe Illustrator 23.0.0, SVG Export Plug-In . SVG Version: 6.00 Build 0)  -->
<svg version="1.1" id="Layer_1" xmlns="http://www.w3.org/2000/svg" xmlns:xlink="http://www.w3.org/1999/xlink" x="0px" y="0px"
	 viewBox="0 0 310.7 457" style="enable-background:new 0 0 310.7 457;" xml:space="preserve">
<title>Gas</title>
<path d="M310.7,240.5c0-17.3-13.1-31.9-30.3-33.8V92.3c18.5-2,32-18.6,30-37.1c-1.8-17.3-16.6-30.4-34-30.2h-150V7.5
	c0-4.4-3.6-7.5-8-7.5h-66c-4.4,0-8,3.1-8,7.5V25h-10C15.7,24.8,0.4,39.7,0.1,58.3c-0.2,17.4,12.9,32.1,30.2,34v114.4
	c-18.7,2-32.2,18.8-30.1,37.5c1.7,15.9,14.3,28.4,30.1,30.1v114.4C11.5,391-1.9,408,0.4,426.8C2.5,444,17,457,34.3,457h242
	c18.9-0.1,34.2-15.4,34.2-34.4c0-17.3-13-31.9-30.2-33.9V274.3C297.6,272.4,310.6,257.8,310.7,240.5z M60.3,16h50v9h-50V16z
	 M16.3,59c0-9.9,8.1-18,18-18h242c9.9,0,18,8.1,18,18s-8.1,18-18,18h-242C24.4,77,16.3,68.9,16.3,59z M264.3,93v114h-218V93H264.3z
	 M294.3,423c0,9.9-8.1,18-18,18h-242c-9.9,0-18-8.1-18-18s8.1-18,18-18h242C286.3,405,294.3,413.1,294.3,423z M46.3,389V275h218v114
	H46.3z M276.3,259h-242c-9.9,0-18-8.1-18-18s8.1-18,18-18h242c9.9,0,18,8.1,18,18S286.3,259,276.3,259z"/>
</svg>
