<?xml version="1.0" encoding="utf-8"?>
<!-- Generator: Adobe Illustrator 22.0.0, SVG Export Plug-In . SVG Version: 6.00 Build 0)  -->
<svg version="1.1" fill="#79b53d" id="Capa_1" xmlns="http://www.w3.org/2000/svg" xmlns:xlink="http://www.w3.org/1999/xlink" x="0px" y="0px"
	 viewBox="0 0 512 512" style="enable-background:new 0 0 512 512;" xml:space="preserve">

<g transform="translate(-1 -1)">
	<g>
		<g>
			<path  d="M502,8.4L499.7,6c-5.6-5.7-14.4-6.6-21.2-2.3l-54.4,34.6l-1-1c-10-10-26.2-10-36.2,0l-17.8,17.8c0,0,0,0,0,0
				s0,0,0,0L195.4,228.7c0,0,0,0,0,0s0,0,0,0l-41.8,41.8c-4.8,4.8-7.5,11.3-7.5,18.1s2.7,13.3,7.5,18.1l17.8,17.8l-126,126
				c-3.3,3.2-8.6,3.2-11.9,0l-12-12c-2.2-2.2-5.3-3-8.2-2.2c-2.9,0.8-5.2,3.1-6,6s0.1,6.1,2.2,8.2l12,12c4.8,4.8,11.3,7.5,18,7.5
				c6.8,0,13.2-2.7,18-7.5l126-126l17.8,17.8c4.8,4.8,11.3,7.5,18.1,7.5c1.1,0,2.3-0.1,3.4-0.2l73.5,142.2c2.5,4.8,7.2,8.1,12.5,8.9
				c0.9,0.1,1.8,0.2,2.6,0.2c4.5,0,8.8-1.8,12-5l5.6-5.6c12.2-12.2,15.8-30.6,9.1-46.5l-34.4-82l36.6,9.2c3.4,0.9,6.9,1.3,10.4,1.3
				c8.4,0,16.6-2.5,23.5-7.1l9-6c5.4-3.6,8.2-10,7.4-16.4c-0.9-6.4-5.3-11.8-11.5-13.9l-96.2-32l44.1-44.1l2.9,2.9
				c5.6,5.6,13.1,8.7,21,8.7l0,0c12,0,22.8-7.2,27.4-18.3c1.6-3.8,2.3-7.7,2.2-11.6c0.1,0,0.2,0,0.3,0l0,0c12,0,22.9-7.2,27.5-18.3
				c1.6-3.8,2.3-7.7,2.2-11.6c0.1,0,0.2,0,0.2,0c12,0,22.8-7.2,27.4-18.3c1.6-3.8,2.3-7.7,2.2-11.6c0.1,0,0.2,0,0.3,0
				c12,0,22.8-7.2,27.4-18.3s2.1-23.9-6.4-32.4L459,133l11.8-11.8c10-10,10-26.2,0-36.2l-1-1.1l34.6-54.4v0
				C508.7,22.8,507.7,14,502,8.4z M402.5,165.3L381,186.8c0,0,0,0,0,0L360.8,207l-87.6,87.6l-59.8-59.8L375.1,73.2l59.8,59.8
				L402.5,165.3z M165.6,294.7c-1.6-1.6-2.5-3.8-2.5-6s0.9-4.4,2.5-6l35.8-35.8l59.8,59.8l-35.8,35.8c-3.4,3.2-8.7,3.2-12.1,0
				L165.6,294.7z M317,490.3l-5.5,5.7L238,354l27.4-27.4l57,136C326.5,472,324.3,483,317,490.3z M364.9,363.1
				c-6,4-13.3,5.2-20.3,3.5l-49-12.3l-11.4-27.1l89.7,29.8L364.9,363.1z M360,255.7L360,255.7c-5,4.8-12.9,4.8-17.9,0l-2.9-2.9
				l17.9-17.9l2.6,2.6l0.4,0.4c2.4,2.4,3.7,5.6,3.7,8.9C363.7,250.1,362.4,253.3,360,255.7z M390,225.7c-4.9,4.9-12.9,4.9-17.9,0
				l-2.9-2.9l0.6-0.6l17.3-17.3l2.9,2.9C394.9,212.8,394.9,220.8,390,225.7z M419.9,195.8c-5,4.8-12.9,4.8-17.9,0c0,0,0,0,0,0
				l-2.9-2.9l17.2-17.2l0.7-0.7l3,2.9l0,0C424.8,182.9,424.8,190.9,419.9,195.8z M449.9,165.9c-4.9,4.9-12.9,4.9-17.9,0l0,0l-3-2.9
				l17.9-17.9l2.9,2.9C454.8,152.9,454.8,160.9,449.9,165.9z M458.7,109.1l-11.8,11.8l-59.8-59.8L399,49.3c1.6-1.6,3.8-2.5,6-2.5
				c2.3,0,4.4,0.9,6,2.5L458.7,97C462.1,100.3,462.1,105.7,458.7,109.1z M457.4,71.5l-17.1-17.1l-3.8-3.8l51.1-32.6l2.3,2.3
				L457.4,71.5z"/>
			<path  d="M411,216.5L411,216.5L411,216.5z"/>
		</g>
	</g>
</g>
</svg>
