<?xml version="1.0" encoding="utf-8"?>
<!-- Generator: Adobe Illustrator 23.0.0, SVG Export Plug-In . SVG Version: 6.00 Build 0)  -->
<svg version="1.1" id="Layer_1" xmlns="http://www.w3.org/2000/svg" xmlns:xlink="http://www.w3.org/1999/xlink" x="0px" y="0px"
	 viewBox="0 0 511.7 512" style="enable-background:new 0 0 511.7 512;" xml:space="preserve">
<style type="text/css">
	.st0{fill-rule:evenodd;clip-rule:evenodd;}
</style>
<g>
	<path d="M412,292.2V62c0-34.2-27.8-62-62-62c-34.2,0-62,27.8-62,62v230.2c-22.1,13.6-39.3,34-48.7,58.2
		c-2,5.1,0.6,10.9,5.7,12.9c5.1,2,10.9-0.6,12.9-5.7c8.4-21.7,24.3-39.8,44.8-50.9c3.2-1.8,5.2-5.1,5.2-8.8V62c0-23.1,18.8-42,42-42
		c23.1,0,42,18.8,42,42v236c0,3.7,2,7,5.2,8.8c31.7,17.3,51.5,50.5,51.5,86.6c0,54.4-44.3,98.6-98.6,98.6c-41,0-77.1-24.7-92-62.9
		c-2-5.1-7.8-7.7-12.9-5.7s-7.7,7.8-5.7,12.9c8.7,22.4,23.8,41.4,43.6,55s43,20.7,67,20.7c65.4,0,118.6-53.2,118.6-118.6
		C468.7,351.9,447.1,313.7,412,292.2z"/>
	<path d="M350.1,87.4c-5.5,0-10,4.5-10,10v227.7c-33.3,4.9-59,33.6-59,68.3c0,38.1,31,69,69,69c38.1,0,69-31,69-69
		c0-34.7-25.7-63.4-59-68.3V97.4C360.1,91.9,355.6,87.4,350.1,87.4z M399.1,393.4c0,27-22,49-49,49c-27,0-49-22-49-49
		c0-27,22-49,49-49C377.1,344.3,399.1,366.3,399.1,393.4z"/>
	<path d="M449.8,115h52c5.5,0,10-4.5,10-10s-4.5-10-10-10h-52c-5.5,0-10,4.5-10,10S444.3,115,449.8,115z"/>
	<path d="M501.7,141.2h-52c-5.5,0-10,4.5-10,10c0,5.5,4.5,10,10,10h52c5.5,0,10-4.5,10-10
		C511.7,145.7,507.3,141.2,501.7,141.2z"/>
	<path d="M501.7,187.4h-52c-5.5,0-10,4.5-10,10s4.5,10,10,10h52c5.5,0,10-4.5,10-10S507.3,187.4,501.7,187.4z"/>
	<path d="M501.7,233.5h-52c-5.5,0-10,4.5-10,10c0,5.5,4.5,10,10,10h52c5.5,0,10-4.5,10-10S507.3,233.5,501.7,233.5z"/>
	<path d="M136,99.1c-24.1,0-46.8,11.7-60.9,31.2c-3.2,4.5-2.2,10.7,2.3,14c4.5,3.2,10.7,2.2,14-2.3
		c10.4-14.3,27.1-22.9,44.7-22.9c30.4,0,55.1,24.7,55.1,55.1s-24.7,55.1-55.1,55.1c-17.7,0-34.4-8.6-44.7-22.9
		c-3.2-4.5-9.5-5.5-14-2.3c-4.5,3.2-5.5,9.5-2.3,14c14.1,19.5,36.9,31.2,60.9,31.2c41.4,0,75.1-33.7,75.1-75.1S177.4,99.1,136,99.1z
		"/>
	<path d="M136,81.9c5.5,0,10-4.5,10-10V48.3c0-5.5-4.5-10-10-10s-10,4.5-10,10v23.7C126,77.4,130.5,81.9,136,81.9z"/>
	<path d="M56.6,109c2,2,4.5,2.9,7.1,2.9s5.1-1,7.1-2.9c3.9-3.9,3.9-10.2,0-14.1L54,78.1c-3.9-3.9-10.2-3.9-14.1,0
		c-3.9,3.9-3.9,10.2,0,14.1L56.6,109z"/>
	<path d="M228.4,174.3c0,5.5,4.5,10,10,10H262c5.5,0,10-4.5,10-10s-4.5-10-10-10h-23.7
		C232.8,164.3,228.4,168.7,228.4,174.3z"/>
	<path d="M208.4,111.9c2.6,0,5.1-1,7.1-2.9l16.7-16.7c3.9-3.9,3.9-10.2,0-14.1c-3.9-3.9-10.2-3.9-14.1,0l-16.7,16.7
		c-3.9,3.9-3.9,10.2,0,14.1C203.3,110.9,205.8,111.9,208.4,111.9z"/>
	<path d="M43.7,174.3c0-5.5-4.5-10-10-10H10c-5.5,0-10,4.5-10,10s4.5,10,10,10h23.7C39.2,184.3,43.7,179.8,43.7,174.3z"
		/>
	<path d="M136,266.6c-5.5,0-10,4.5-10,10v23.7c0,5.5,4.5,10,10,10s10-4.5,10-10v-23.7C146,271.1,141.5,266.6,136,266.6z
		"/>
	<path d="M232.2,256.3l-16.7-16.7c-3.9-3.9-10.2-3.9-14.1,0c-3.9,3.9-3.9,10.2,0,14.1l16.7,16.7c2,1.9,4.5,2.9,7.1,2.9
		s5.1-1,7.1-2.9C236.1,266.5,236.1,260.2,232.2,256.3z"/>
	<path d="M56.6,239.6l-16.7,16.7c-3.9,3.9-3.9,10.2,0,14.1c1.9,2,4.5,2.9,7.1,2.9s5.1-1,7.1-2.9l16.7-16.7
		c3.9-3.9,3.9-10.2,0-14.1S60.5,235.7,56.6,239.6z"/>
	<path d="M251.5,393.4c0-5.5-4.5-10-10-10s-10,4.5-10,10s4.5,10,10,10S251.5,398.9,251.5,393.4z"/>
	<path d="M60.9,174.3c0,5.5,4.5,10,10,10s10-4.5,10-10s-4.5-10-10-10S60.9,168.8,60.9,174.3z"/>
</g>
</svg>
