<?xml version="1.0" encoding="utf-8"?>
<!-- Generator: Adobe Illustrator 23.0.0, SVG Export Plug-In . SVG Version: 6.00 Build 0)  -->
<svg version="1.1" id="Capa_1" xmlns="http://www.w3.org/2000/svg" xmlns:xlink="http://www.w3.org/1999/xlink" x="0px" y="0px"
	 viewBox="0 0 47 60" style="enable-background:new 0 0 47 60;" xml:space="preserve">
<g>
	<path d="M32.4,0H0v60h47V14.6L32.4,0z M33,3.4L43.6,14H33V3.4z M2,58V2h29v14h14v42H2z"/>
	<path d="M36,21H20c-0.6,0-1,0.4-1,1s0.4,1,1,1h16c0.6,0,1-0.4,1-1S36.6,21,36,21z"/>
	<path d="M16.4,18.2l-4.3,3.4l-1.4-1.4c-0.4-0.4-1-0.4-1.4,0s-0.4,1,0,1.4l2,2c0.2,0.2,0.5,0.3,0.7,0.3c0.2,0,0.4-0.1,0.6-0.2l5-4
		c0.4-0.3,0.5-1,0.2-1.4C17.4,17.9,16.8,17.9,16.4,18.2z"/>
	<path d="M36,32H20c-0.6,0-1,0.4-1,1s0.4,1,1,1h16c0.6,0,1-0.4,1-1S36.6,32,36,32z"/>
	<path d="M16.4,29.2l-4.3,3.4l-1.4-1.4c-0.4-0.4-1-0.4-1.4,0s-0.4,1,0,1.4l2,2c0.2,0.2,0.5,0.3,0.7,0.3c0.2,0,0.4-0.1,0.6-0.2l5-4
		c0.4-0.3,0.5-1,0.2-1.4C17.4,28.9,16.8,28.9,16.4,29.2z"/>
	<path d="M36,43H20c-0.6,0-1,0.4-1,1s0.4,1,1,1h16c0.6,0,1-0.4,1-1S36.6,43,36,43z"/>
	<path d="M16.4,40.2l-4.3,3.4l-1.4-1.4c-0.4-0.4-1-0.4-1.4,0s-0.4,1,0,1.4l2,2c0.2,0.2,0.5,0.3,0.7,0.3c0.2,0,0.4-0.1,0.6-0.2l5-4
		c0.4-0.3,0.5-1,0.2-1.4C17.4,39.9,16.8,39.9,16.4,40.2z"/>
</g>
</svg>
