<?xml version="1.0" encoding="utf-8"?>
<!-- Generator: Adobe Illustrator 22.0.0, SVG Export Plug-In . SVG Version: 6.00 Build 0)  -->
<svg version="1.1" id="Layer_1" xmlns="http://www.w3.org/2000/svg" xmlns:xlink="http://www.w3.org/1999/xlink" x="0px" y="0px"
	 viewBox="0 0 258.1 76.1" style="enable-background:new 0 0 258.1 76.1;" xml:space="preserve">
<style type="text/css">
	.st0{fill:#232323;}
	.st1{fill:#238A58;}
</style>
<g>
	<path class="st0" d="M11.8,11c0.4,0.5,0.7,1.1,0.7,1.8c0,0.7-0.2,1.3-0.6,1.8c-0.4,0.5-1,0.9-1.7,1.2c-0.7,0.3-1.5,0.4-2.3,0.4
		c-0.8,0-1.6-0.1-2.3-0.4c-0.8-0.3-1.5-0.6-2.1-1.1l0.5-0.9c0.5,0.4,1.1,0.8,1.8,1s1.3,0.3,2,0.3c0.6,0,1.2-0.1,1.8-0.3
		s1-0.5,1.3-0.9c0.3-0.4,0.5-0.8,0.5-1.4c0-0.7-0.3-1.2-0.8-1.6c-0.5-0.4-1.3-0.6-2.3-0.6H5.5v-1H8c0.8,0,1.5-0.2,2-0.5
		c0.5-0.4,0.7-0.9,0.7-1.5c0-0.7-0.3-1.3-0.9-1.7C9.2,5.4,8.4,5.2,7.5,5.2c-0.6,0-1.1,0.1-1.7,0.2C5.2,5.6,4.6,5.8,4.1,6.2l-0.4-1
		c1.2-0.7,2.5-1.1,3.8-1.1c0.8,0,1.5,0.1,2.2,0.4c0.7,0.3,1.2,0.6,1.6,1.1c0.4,0.5,0.6,1.1,0.6,1.7c0,0.6-0.2,1.2-0.5,1.6
		c-0.4,0.5-0.8,0.8-1.5,1C10.7,10.1,11.3,10.5,11.8,11z"/>
	<path class="st0" d="M21,8c0.6,0.6,0.9,1.4,0.9,2.6v5.5h-1.2v-1.4c-0.3,0.5-0.7,0.8-1.2,1.1c-0.5,0.3-1.2,0.4-1.9,0.4
		c-1,0-1.8-0.2-2.4-0.7s-0.9-1.1-0.9-1.9c0-0.8,0.3-1.4,0.8-1.8c0.5-0.5,1.4-0.7,2.6-0.7h2.8v-0.5c0-0.8-0.2-1.4-0.6-1.8
		S19,8.2,18.2,8.2c-0.6,0-1.1,0.1-1.6,0.3c-0.5,0.2-1,0.4-1.3,0.8l-0.5-0.9c0.5-0.4,1-0.7,1.6-0.9c0.6-0.2,1.3-0.3,2-0.3
		C19.5,7.1,20.4,7.4,21,8z M19.7,14.8c0.5-0.3,0.9-0.8,1.1-1.4V12h-2.8c-1.5,0-2.3,0.5-2.3,1.6c0,0.5,0.2,0.9,0.6,1.2
		c0.4,0.3,1,0.5,1.7,0.5C18.6,15.3,19.2,15.1,19.7,14.8z"/>
	<path class="st0" d="M31.5,8.3h-5.1v7.9h-1.2V7.2h6.3V8.3z"/>
	<path class="st0" d="M34.2,15.6c-0.7-0.4-1.2-0.9-1.6-1.6c-0.4-0.7-0.6-1.5-0.6-2.3c0-0.9,0.2-1.7,0.6-2.3c0.4-0.7,0.9-1.2,1.6-1.6
		c0.7-0.4,1.5-0.6,2.3-0.6s1.6,0.2,2.3,0.6c0.7,0.4,1.2,0.9,1.6,1.6s0.6,1.5,0.6,2.3c0,0.9-0.2,1.7-0.6,2.3
		c-0.4,0.7-0.9,1.2-1.6,1.6s-1.5,0.6-2.3,0.6S34.9,16,34.2,15.6z M38.2,14.7c0.5-0.3,0.9-0.7,1.2-1.2s0.4-1.1,0.4-1.8
		c0-0.7-0.1-1.3-0.4-1.8s-0.7-0.9-1.2-1.2s-1.1-0.4-1.7-0.4s-1.2,0.1-1.7,0.4s-0.9,0.7-1.2,1.2s-0.4,1.1-0.4,1.8
		c0,0.7,0.1,1.3,0.4,1.8s0.7,0.9,1.2,1.2s1.1,0.4,1.7,0.4S37.7,15,38.2,14.7z"/>
	<path class="st0" d="M50.5,7.7c0.7,0.4,1.2,0.9,1.6,1.6c0.4,0.7,0.6,1.5,0.6,2.4c0,0.9-0.2,1.7-0.6,2.4c-0.4,0.7-0.9,1.2-1.6,1.6
		s-1.4,0.6-2.3,0.6c-0.7,0-1.4-0.1-2-0.5c-0.6-0.3-1.1-0.7-1.4-1.3v5h-1.2V7.2h1.2V9c0.4-0.6,0.8-1,1.4-1.4c0.6-0.3,1.3-0.5,2-0.5
		C49.1,7.1,49.9,7.3,50.5,7.7z M49.9,14.7c0.5-0.3,0.9-0.7,1.2-1.2c0.3-0.5,0.4-1.1,0.4-1.8c0-0.7-0.1-1.3-0.4-1.8
		c-0.3-0.5-0.7-0.9-1.2-1.2c-0.5-0.3-1.1-0.4-1.7-0.4c-0.6,0-1.2,0.1-1.7,0.4c-0.5,0.3-0.9,0.7-1.2,1.2c-0.3,0.5-0.4,1.1-0.4,1.8
		c0,0.7,0.1,1.3,0.4,1.8s0.7,0.9,1.2,1.2s1.1,0.4,1.7,0.4C48.8,15.2,49.4,15,49.9,14.7z"/>
	<path class="st0" d="M56.7,15.6C56,15.3,55.4,14.7,55,14c-0.4-0.7-0.6-1.5-0.6-2.3c0-0.9,0.2-1.7,0.6-2.3c0.4-0.7,0.9-1.2,1.6-1.6
		c0.7-0.4,1.5-0.6,2.3-0.6s1.6,0.2,2.3,0.6C62,8.1,62.6,8.6,63,9.3s0.6,1.5,0.6,2.3c0,0.9-0.2,1.7-0.6,2.3c-0.4,0.7-0.9,1.2-1.6,1.6
		s-1.5,0.6-2.3,0.6S57.4,16,56.7,15.6z M60.7,14.7c0.5-0.3,0.9-0.7,1.2-1.2s0.4-1.1,0.4-1.8c0-0.7-0.1-1.3-0.4-1.8s-0.7-0.9-1.2-1.2
		S59.6,8.2,59,8.2s-1.2,0.1-1.7,0.4s-0.9,0.7-1.2,1.2s-0.4,1.1-0.4,1.8c0,0.7,0.1,1.3,0.4,1.8s0.7,0.9,1.2,1.2s1.1,0.4,1.7,0.4
		S60.2,15,60.7,14.7z"/>
	<path class="st0" d="M74.8,15.1v3.2h-1.1v-2.2h-8v2.2h-1.1v-3.2H65c0.6,0,1-0.5,1.2-1.3c0.2-0.9,0.4-2,0.4-3.6l0.1-3h6.6v7.9H74.8z
		 M67.5,13.4c-0.2,0.8-0.4,1.4-0.9,1.7h5.6V8.3h-4.3l-0.1,2C67.7,11.5,67.6,12.6,67.5,13.4z"/>
	<path class="st0" d="M77.1,7.2h1.2v4H84v-4h1.2v8.9H84v-3.9h-5.6v3.9h-1.2V7.2z"/>
	<path class="st0" d="M94.9,11.1c0.6,0.5,0.9,1.2,0.9,2.1c0,1-0.3,1.7-1,2.2c-0.6,0.5-1.5,0.8-2.7,0.7l-3.5,0V7.2h1.2v3.1l2.5,0
		C93.5,10.4,94.3,10.6,94.9,11.1z M94,14.7c0.4-0.3,0.6-0.9,0.6-1.5c0-0.7-0.2-1.1-0.6-1.5c-0.4-0.3-1-0.5-1.9-0.5l-2.3,0v4l2.3,0
		C92.9,15.3,93.5,15.1,94,14.7z M97.3,7.2h1.2v8.9h-1.2V7.2z"/>
	<path class="st0" d="M102,7.2h1.2v7.1l6-7.1h1.1v8.9H109V9l-6,7.1H102V7.2z M104.2,5.3c-0.5-0.4-0.7-0.9-0.7-1.6h0.9
		c0,0.4,0.2,0.8,0.5,1.1c0.3,0.3,0.7,0.4,1.2,0.4s0.9-0.1,1.2-0.4s0.5-0.6,0.5-1.1h0.9c0,0.7-0.2,1.2-0.7,1.6
		c-0.5,0.4-1.1,0.6-1.8,0.6C105.3,5.9,104.6,5.7,104.2,5.3z"/>
</g>
<g>
	<path class="st0" d="M13.1,58.7c-3-1.6-5.3-3.9-7-6.8c-1.7-2.9-2.5-6.1-2.5-9.7c0-3.6,0.8-6.8,2.5-9.7c1.7-2.9,4-5.1,7-6.8
		c3-1.6,6.4-2.5,10.1-2.5c2.9,0,5.5,0.5,8,1.5c2.4,1,4.5,2.4,6.1,4.3l-3.4,3.3c-2.8-2.9-6.3-4.4-10.4-4.4c-2.8,0-5.2,0.6-7.5,1.9
		c-2.2,1.2-4,2.9-5.2,5.1c-1.3,2.2-1.9,4.6-1.9,7.3c0,2.7,0.6,5.1,1.9,7.3c1.3,2.2,3,3.9,5.2,5.1c2.2,1.2,4.7,1.9,7.5,1.9
		c4.1,0,7.6-1.5,10.4-4.5l3.4,3.3c-1.7,1.9-3.8,3.4-6.2,4.3c-2.4,1-5.1,1.5-8,1.5C19.4,61.1,16,60.3,13.1,58.7z"/>
	<path class="st0" d="M71.5,56.1v4.6H44.6V23.6h26.2v4.6H49.9v11.4h18.6v4.5H49.9v12H71.5z"/>
	<path class="st0" d="M105.6,27.1c2.8,2.3,4.1,5.5,4.1,9.5c0,4-1.4,7.2-4.1,9.5s-6.5,3.4-11.3,3.4h-9.2v11.2h-5.3V23.6h14.5
		C99.1,23.6,102.9,24.8,105.6,27.1z M101.8,42.7c1.8-1.4,2.6-3.5,2.6-6.2c0-2.7-0.9-4.7-2.6-6.2c-1.8-1.4-4.3-2.1-7.7-2.1h-9v16.6h9
		C97.5,44.9,100,44.1,101.8,42.7z"/>
	<path class="st0" d="M145.9,44.7c1.3,1.5,1.9,3.5,1.9,5.9c0,3.2-1.2,5.7-3.5,7.5c-2.3,1.8-5.8,2.7-10.3,2.7h-17V23.6h16
		c4.1,0,7.2,0.8,9.5,2.5c2.3,1.6,3.4,4,3.4,7.1c0,2-0.5,3.7-1.5,5.1c-1,1.4-2.4,2.5-4.3,3.2C142.7,42.1,144.6,43.1,145.9,44.7z
		 M122.4,39.9h10.3c2.6,0,4.5-0.5,5.9-1.5c1.4-1,2-2.5,2-4.5s-0.7-3.5-2.1-4.5c-1.4-1-3.3-1.6-5.9-1.6h-10.3V39.9z M142.5,50.2
		c0-2.1-0.7-3.7-2.1-4.7S136.8,44,134,44h-11.6v12.6H134C139.7,56.5,142.5,54.4,142.5,50.2z"/>
	<path class="st0" d="M156.7,23.6h5.2v28.6l21.9-28.6h4.9v37.1h-5.2V32.1l-22,28.6h-4.9V23.6z"/>
	<path class="st0" d="M206.9,58.7c-3-1.6-5.3-3.9-7-6.8s-2.5-6.1-2.5-9.7c0-3.6,0.8-6.8,2.5-9.7s4-5.1,7-6.8s6.4-2.5,10.1-2.5
		c2.9,0,5.5,0.5,8,1.5c2.4,1,4.5,2.4,6.1,4.3l-3.4,3.3c-2.8-2.9-6.3-4.4-10.4-4.4c-2.8,0-5.2,0.6-7.5,1.9c-2.2,1.2-4,2.9-5.2,5.1
		c-1.3,2.2-1.9,4.6-1.9,7.3c0,2.7,0.6,5.1,1.9,7.3c1.3,2.2,3,3.9,5.2,5.1c2.2,1.2,4.7,1.9,7.5,1.9c4.1,0,7.6-1.5,10.4-4.5l3.4,3.3
		c-1.7,1.9-3.8,3.4-6.2,4.3c-2.4,1-5.1,1.5-8,1.5C213.2,61.1,209.9,60.3,206.9,58.7z"/>
</g>
<circle class="st1" cx="126.4" cy="11.5" r="4"/>
</svg>
