<?xml version="1.0" encoding="utf-8"?>
<!-- Generator: Adobe Illustrator 23.0.0, SVG Export Plug-In . SVG Version: 6.00 Build 0)  -->
<svg version="1.1" id="Capa_1" xmlns="http://www.w3.org/2000/svg" xmlns:xlink="http://www.w3.org/1999/xlink" x="0px" y="0px"
	 viewBox="0 0 31 22" fill="#79b53d" style="enable-background:new 0 0 31 22;" xml:space="preserve">
<g>
	<g>
		<path d="M25.1,17c-0.1,0-0.2,0-0.3-0.1L19,11.5c-0.2-0.2-0.2-0.5,0-0.7c0.2-0.2,0.5-0.2,0.7,0l5.8,5.4c0.2,0.2,0.2,0.5,0,0.7
			C25.4,17,25.2,17,25.1,17z"/>
		<path d="M5.9,17c-0.1,0-0.3-0.1-0.4-0.2c-0.2-0.2-0.2-0.5,0-0.7l5.8-5.4c0.2-0.2,0.5-0.2,0.7,0c0.2,0.2,0.2,0.5,0,0.7l-5.8,5.4
			C6.1,17,6,17,5.9,17z"/>
	</g>
	<path d="M28.5,22h-26C1.1,22,0,20.9,0,19.5v-17C0,1.1,1.1,0,2.5,0h26C29.9,0,31,1.1,31,2.5v17C31,20.9,29.9,22,28.5,22z M2.5,1
		C1.7,1,1,1.7,1,2.5v17C1,20.4,1.7,21,2.5,21h26c0.8,0,1.5-0.7,1.5-1.5v-17C30,1.7,29.3,1,28.5,1H2.5z"/>
	<path d="M15.5,13.5c-0.7,0-1.3-0.2-1.8-0.7L0.8,1.7C0.6,1.5,0.6,1.2,0.8,1c0.2-0.2,0.5-0.2,0.7,0l12.8,11.2c0.6,0.6,1.7,0.6,2.4,0
		L29.5,0.9c0.2-0.2,0.5-0.2,0.7,0c0.2,0.2,0.2,0.5,0,0.7L17.3,12.9C16.8,13.3,16.2,13.5,15.5,13.5z"/>
</g>
</svg>
