<?xml version="1.0" encoding="utf-8"?>
<!-- Generator: Adobe Illustrator 23.0.0, SVG Export Plug-In . SVG Version: 6.00 Build 0)  -->
<svg version="1.1" id="Layer_1" xmlns="http://www.w3.org/2000/svg" xmlns:xlink="http://www.w3.org/1999/xlink" x="0px" y="0px"
	 viewBox="0 0 480 480" style="enable-background:new 0 0 480 480;" xml:space="preserve">
<g id="Outline">
	<path d="M368,120V88h-48v32h-80V48c0-31.2-61.8-48-120-48S0,16.8,0,48v192c0,31.2,61.8,48,120,48s120-16.8,120-48v-72h66l7.8,32
		h6.2v256c0,13.3,10.7,24,24,24s24-10.7,24-24V200h6.2l7.9-31.5l97.9,8.2V120H368z M336,104h16v16h-16V104z M320,136h48v23l-6.2,25
		h-35.5l-6.2-25V136z M304,136v16H193.4c3.4-9.6,12.5-16,22.6-16H304z M120,16c63.5,0,104,19,104,32s-40.5,32-104,32S16,61,16,48
		S56.5,16,120,16z M16,72.9L16,72.9c0.2,0.1,0.4,0.2,0.5,0.3c1.7,1.1,3.5,2.2,5.4,3.2l1.7,0.9c1.9,1,3.8,1.9,5.8,2.8l0.8,0.4
		c2.3,1,4.7,1.9,7.2,2.8l2,0.7c2.1,0.7,4.3,1.4,6.6,2.1l1.5,0.4c2.7,0.8,5.5,1.5,8.3,2.2c0.7,0.2,1.4,0.3,2.1,0.5
		c2.4,0.5,4.8,1,7.2,1.5l2.1,0.4c3,0.5,6,1,9.1,1.5c0.6,0.1,1.3,0.2,1.9,0.3c2.6,0.4,5.2,0.7,7.8,1c0.8,0.1,1.6,0.2,2.4,0.3
		c3.2,0.3,6.4,0.6,9.6,0.9l1.3,0.1c2.8,0.2,5.7,0.3,8.5,0.5l2.6,0.1c3.2,0.1,6.5,0.2,9.7,0.2s6.5-0.1,9.7-0.2l2.6-0.1
		c2.8-0.1,5.7-0.3,8.5-0.5l1.3-0.1c3.2-0.2,6.4-0.5,9.6-0.9c0.8-0.1,1.6-0.2,2.4-0.3c2.6-0.3,5.2-0.6,7.8-1l1.9-0.3
		c3.1-0.5,6.1-1,9.1-1.5l2.1-0.4c2.4-0.5,4.8-1,7.2-1.5c0.7-0.2,1.4-0.3,2.1-0.5c2.8-0.7,5.6-1.4,8.3-2.2l1.5-0.4
		c2.2-0.7,4.4-1.4,6.6-2.1c0.7-0.2,1.4-0.5,2-0.7c2.5-0.9,4.9-1.8,7.2-2.8l0.8-0.4c2-0.9,4-1.8,5.8-2.8l1.7-0.9
		c1.9-1,3.7-2.1,5.4-3.2c0.1-0.1,0.3-0.2,0.4-0.3h0V112c-0.4,3.1-1.9,6-4.4,8H216c-12.8,0-24.8,6.2-32.3,16.6
		c-20.9,5.1-42.3,7.6-63.7,7.4c-63.5,0-104-19-104-32V72.9z M224,240c0,13-40.5,32-104,32S16,253,16,240v-39.1h0
		c0.1,0.1,0.3,0.2,0.4,0.3c1.7,1.1,3.5,2.2,5.4,3.2l1.7,0.9c1.9,1,3.8,1.9,5.8,2.8l0.8,0.4c2.3,1,4.7,1.9,7.2,2.8l2,0.7
		c2.1,0.7,4.3,1.4,6.6,2.1l1.5,0.4c2.7,0.8,5.5,1.5,8.3,2.2c0.7,0.2,1.4,0.3,2.1,0.5c2.4,0.5,4.8,1,7.2,1.5l2.1,0.4
		c3,0.5,6,1,9.1,1.5c0.6,0.1,1.3,0.2,1.9,0.3c2.6,0.4,5.2,0.7,7.8,1c0.8,0.1,1.6,0.2,2.4,0.3c3.2,0.3,6.4,0.6,9.6,0.9l1.3,0.1
		c2.8,0.2,5.7,0.3,8.5,0.5l2.6,0.1c3.2,0.1,6.5,0.2,9.7,0.2s6.5-0.1,9.7-0.2l2.6-0.1c2.8-0.1,5.7-0.3,8.5-0.5l1.3-0.1
		c3.2-0.2,6.4-0.5,9.6-0.9c0.8-0.1,1.6-0.2,2.4-0.3c2.6-0.3,5.2-0.6,7.8-1l1.9-0.3c3.1-0.5,6.1-1,9.1-1.5l2.1-0.4
		c2.4-0.5,4.8-1,7.2-1.5c0.7-0.2,1.4-0.3,2.1-0.5c2.8-0.7,5.6-1.4,8.3-2.2l1.5-0.4c2.2-0.7,4.4-1.4,6.6-2.1c0.7-0.2,1.4-0.5,2-0.7
		c2.5-0.9,4.9-1.8,7.2-2.8l0.8-0.4c2-0.9,4-1.8,5.8-2.8l1.7-0.9c1.9-1,3.7-2.1,5.4-3.2c0.1-0.1,0.3-0.2,0.4-0.3h0L224,240z M224,176
		c0,13-40.5,32-104,32S16,189,16,176v-39.1h0c0.1,0.1,0.3,0.2,0.4,0.3c1.7,1.1,3.5,2.2,5.4,3.2l1.7,0.9c1.9,1,3.8,1.9,5.8,2.8
		l0.8,0.4c2.3,1,4.7,1.9,7.2,2.8l2,0.7c2.1,0.7,4.3,1.4,6.6,2.1l1.5,0.4c2.7,0.8,5.5,1.5,8.3,2.2c0.7,0.2,1.4,0.3,2.1,0.5
		c2.4,0.5,4.8,1,7.2,1.5l2.1,0.4c3,0.5,6,1,9.1,1.5c0.6,0.1,1.3,0.2,1.9,0.3c2.6,0.4,5.2,0.7,7.8,1c0.8,0.1,1.6,0.2,2.4,0.3
		c3.2,0.3,6.4,0.6,9.6,0.9l1.3,0.1c2.8,0.2,5.7,0.3,8.5,0.5l2.6,0.1c3.2,0.1,6.5,0.2,9.7,0.2c19,0.1,37.9-1.7,56.5-5.4
		c-0.3,1.8-0.5,3.6-0.6,5.4v8h48V176z M352,456c0,4.4-3.6,8-8,8s-8-3.6-8-8V264h16V456z M352,248h-16v-48h16V248z M464,136v23.3
		l-80-6.7V136H464z"/>
</g>
</svg>
