<?xml version="1.0" encoding="utf-8"?>
<!-- Generator: Adobe Illustrator 22.0.0, SVG Export Plug-In . SVG Version: 6.00 Build 0)  -->
<svg version="1.1" id="Layer_1" xmlns="http://www.w3.org/2000/svg" xmlns:xlink="http://www.w3.org/1999/xlink" x="0px" y="0px"
	 viewBox="0 0 159.5 139.9" style="enable-background:new 0 0 159.5 139.9;" xml:space="preserve">
<g>
	<path d="M33.8,139.8c-0.9-5.5-1.8-10.8-2.7-16.5c-4.4,0-8.7,0-11.7,0c-5.9-1.5-8.1-5.2-9.6-9.1c-1.8-4.8-3.2-9.7-4.3-14.7
		C2.7,85.9,3.2,72.1,3.9,58.3c0.1-3,0.9-5.9,1.4-8.8c0.3-1.9,0.4-3.9,0.6-6.1C3.7,43.1,2,42.9,0,42.7c0-6.2,0-12.3,0-18.6
		c53,0,106,0,159.4,0c0.1,6,0,12.1,0,18.5c-1.8,0.2-3.6,0.4-5.7,0.6c-0.1,1-0.4,2.2-0.1,3.2c2.6,11.7,2.2,23.5,2,35.3
		c-0.2,10.2-1.6,20.2-5.1,29.8c-0.8,2.3-1.9,4.6-3.2,6.7c-2,3.1-4.7,5-8.7,4.8c-3.1-0.2-6.3,0-9.8,0c-1.2,5.6-2.3,11.1-3.5,16.7
		c-6.2,0-12.1,0-18.3,0c-0.9-5.4-1.8-10.8-2.7-16.4c-4.1,0-8,0-12.2,0c-1.2,5.5-2.4,10.9-3.6,16.4c-6,0-11.7,0-17.8,0
		c-1.9-5-1.4-10.8-3-16.4c-4.1,0-8,0-12.4,0c-0.5,2.6-1.1,5.3-1.7,8c-0.5,2.6-1,5.2-1.6,8.2c-2.8,0.9-6,0.2-9.1,0.4
		C40.1,139.9,37.1,139.8,33.8,139.8z M30.1,116.8c-1.1-7.9-2.2-15.2-3.3-22.6c2.1-0.3,3.8-0.5,5.8-0.7c2.1,13.5,4.2,26.8,6.3,40.2
		c2.9,0,5.5,0,8.2,0c1.2-5.7,2.3-11.1,3.6-16.9c5.5,0,10.6,0,16.1,0c-1.1-7.8-2.2-15.1-3.3-22.6c2.2-0.2,3.9-0.4,5.9-0.7
		c2.1,13.4,4.2,26.7,6.3,40.2c2.9,0,5.4,0,8.2,0c1.1-5.6,2.3-11.1,3.4-16.9c5.4,0,10.7,0,16.2,0c-1.1-7.7-2.2-15-3.3-22.6
		c2.2-0.3,3.9-0.5,5.8-0.8c2.1,13.6,4.2,26.8,6.3,40.2c2.9,0,5.5,0,8.3,0c1.1-5.6,2.2-11.1,3.4-16.7c5.6,0,11,0,16.1,0
		c2.7-2.3,4-5.1,5.1-8.1c2.5-7.2,3.7-14.8,4.3-22.4c0.5-6.3,0.3-12.7,0.3-19c-0.1-9.3-1.1-18.5-3.9-27.5c-0.3-0.9-0.2-1.8-0.2-2.9
		c2.9-0.1,5.3-0.2,7.6-0.4c0-2.5,0-4.6,0-6.7c-49.2,0-98.1,0-147.2,0c0,2.4,0,4.4,0,6.9c2.9,0,5.5,0,8.3,0c-0.6,2.1-1,3.9-1.5,5.6
		c-1.9,5.9-2.7,12-3,18.1C9.2,71.8,8.8,83,10.7,94c0.8,4.7,1.7,9.5,3.1,14.1c1,3.2,2.3,6.7,5.3,8.7
		C22.6,116.8,25.9,116.8,30.1,116.8z"/>
	<path d="M96.7,15.3c0-5,0-9.8,0-14.6c3.9-0.8,24.2-1,35.7-0.4c0.7,5,0,10.1,0.4,15.4c-2,0-3.8,0-6,0c0-2.9,0-5.8,0-9.1
		c-4.2-1.1-8.2-0.5-12.1-0.6c-3.8-0.1-7.6,0-11.9,0c0,3.4,0,6.5,0,9.9C100.3,15.9,98.4,16.6,96.7,15.3z"/>
	<path d="M39.6,6.3c0,3.2,0,6.1,0,9.5c-2,0.1-3.7,0.2-5.8,0.3c0-5.3,0-10.4,0-15.7c11.6,0,23.4,0,35.4,0c0,5,0,10.1,0,15.4
		c-1.8,0-3.5,0-5.7,0c0-3.2,0-6.2,0-9.5C55.4,6.3,47.6,6.3,39.6,6.3z"/>
</g>
</svg>
