<?xml version="1.0" encoding="utf-8"?>
<!-- Generator: Adobe Illustrator 23.0.0, SVG Export Plug-In . SVG Version: 6.00 Build 0)  -->
<svg version="1.1" id="Layer_1" xmlns="http://www.w3.org/2000/svg" xmlns:xlink="http://www.w3.org/1999/xlink" x="0px" y="0px"
	 viewBox="0 0 483.7 490" style="enable-background:new 0 0 483.7 490;" xml:space="preserve">
<g>
	<g>
		<path d="M327.4,406.6c-22.9,0-40.7,18.8-40.7,41.7s18.8,41.7,40.7,41.7s40.7-18.8,40.7-41.7S349.3,406.6,327.4,406.6z
			 M327.4,469.1c-11.5,0-19.8-9.4-19.8-20.9s9.4-20.9,19.8-20.9s19.8,9.4,19.8,20.9S337.8,469.1,327.4,469.1z"/>
		<path d="M105.3,406.6c-22.9,0-40.7,18.8-40.7,41.7S83.4,490,105.3,490c22.9,0,40.7-18.8,40.7-41.7S127.2,406.6,105.3,406.6z
			 M105.3,469.1c-11.5,0-19.8-9.4-19.8-20.9s9.4-20.9,19.8-20.9c11.5,0,19.8,9.4,19.8,20.9C125.1,459.8,115.8,469.1,105.3,469.1z"/>
		<path d="M425.4,0l-16.2,63.6H0l75.5,223.7c-25.3,3.7-44.2,25.1-44.2,52.6c0,30.2,22.9,54.2,52.1,54.2H367v-19.8H83.4
			c-17.7,0-31.3-14.6-31.3-33.4s14.6-33.4,31.3-33.4H367h1l74-286.7h41.7V0L425.4,0L425.4,0z M352.4,286.7H97L29.2,84.4h374.3
			L352.4,286.7L352.4,286.7z"/>
		<rect x="132.4" y="133.4" width="20.9" height="117.8"/>
		<rect x="206.5" y="133.4" width="20.9" height="117.8"/>
		<rect x="280.5" y="133.4" width="20.9" height="117.8"/>
	</g>
</g>
</svg>
