<?xml version="1.0" encoding="utf-8"?>
<!-- Generator: Adobe Illustrator 23.0.0, SVG Export Plug-In . SVG Version: 6.00 Build 0)  -->
<svg version="1.1" id="Layer_1" xmlns="http://www.w3.org/2000/svg" xmlns:xlink="http://www.w3.org/1999/xlink" x="0px" y="0px"
	 viewBox="0 0 450.9 512" style="enable-background:new 0 0 450.9 512;" xml:space="preserve">
<g>
	<g>
		<path d="M329.4,441c-1.8-6.4-8.4-10.2-14.9-8.4c-1.1,0.3-2.2,0.6-3.3,0.9c-26.1,6.9-55.8,10.6-85.8,10.6
			c-47.8,0-93.7-9.2-125.9-25.4C75,406.4,68.4,395.5,67.9,393c-0.1-6.6-5.5-11.9-12.1-11.9c-6.7,0-12.1,5.4-12.1,12.1
			c0,15.4,16.8,33,45,47.1c35.5,17.7,85.3,27.9,136.7,27.9c32,0,63.9-3.9,92-11.4c1.2-0.3,2.4-0.6,3.5-1
			C327.4,454,331.2,447.4,329.4,441z"/>
	</g>
</g>
<g>
	<g>
		<path d="M366.1,428.4c-0.2-0.8-0.4-1.5-0.7-2.3c-0.3-0.7-0.7-1.4-1.1-2.1c-0.4-0.7-0.9-1.3-1.5-1.8c-0.6-0.6-1.2-1.1-1.8-1.5
			c-0.7-0.4-1.4-0.8-2.1-1.1c-0.7-0.3-1.5-0.5-2.3-0.7c-1.6-0.3-3.2-0.3-4.7,0c-0.8,0.1-1.5,0.4-2.3,0.7s-1.4,0.7-2.1,1.1
			c-0.7,0.4-1.3,0.9-1.8,1.5c-0.6,0.6-1.1,1.2-1.5,1.8c-0.4,0.7-0.8,1.4-1.1,2.1c-0.3,0.7-0.5,1.5-0.7,2.3c-0.2,0.8-0.2,1.6-0.2,2.4
			s0.1,1.6,0.2,2.4c0.2,0.8,0.4,1.5,0.7,2.3c0.3,0.7,0.7,1.4,1.1,2.1c0.4,0.7,0.9,1.3,1.5,1.8c0.6,0.6,1.2,1.1,1.8,1.5
			c0.7,0.4,1.4,0.8,2.1,1.1c0.7,0.3,1.5,0.5,2.3,0.7c0.8,0.2,1.6,0.2,2.4,0.2c0.8,0,1.6-0.1,2.4-0.2c0.8-0.2,1.5-0.4,2.3-0.7
			c0.7-0.3,1.4-0.7,2.1-1.1c0.7-0.4,1.3-0.9,1.8-1.5c0.6-0.6,1-1.2,1.5-1.8c0.4-0.7,0.8-1.4,1.1-2.1c0.3-0.7,0.5-1.5,0.7-2.3
			s0.2-1.6,0.2-2.4C366.4,430,366.3,429.2,366.1,428.4z"/>
	</g>
</g>
<g>
	<g>
		<path d="M362.6,298.5c7-11.2,10.7-23.2,10.7-35.6c0-19.3-9.2-38-26.2-54c17.4-13.3,26.8-29.5,26.8-46.8
			c0-32.4-33.3-60.1-85.2-72.9c6.9-8.3,10.9-17.8,10.9-27.9C299.5,26.9,254.7,0,197.4,0C140.1,0,95.3,26.9,95.3,61.3
			c0,16.5,10.4,31.3,27.5,42.2c-29.1,14.8-45.8,35.7-45.8,58.6c0,8,2,15.8,5.9,23.2c-39.3,19.1-61.5,46.8-61.5,77.6
			c0,20.2,9.7,39.3,27.8,55.5c-32,20.9-49.3,47-49.3,74.9C0,459.8,99,512,225.5,512s225.5-52.2,225.5-118.8
			C450.9,355.3,418.2,320.6,362.6,298.5z M119.4,61.3c0-17.6,32-37.1,78-37.1c46,0,78,19.6,78,37.1c0,8.2-7.1,16.9-19.3,23.8
			c-0.3,0.1-0.7,0.3-1,0.5c-13.3,7.2-30.7,11.6-49.5,12.6c-0.1,0-0.3,0-0.5,0c-1.2,0.1-2.4,0.1-3.6,0.1c-1.4,0-2.8,0.1-4.1,0.1
			c-1.7,0-3.4,0-5.1-0.1c-0.3,0-0.5,0-0.7,0c-12.2-0.5-24.1-2.4-34.7-5.6c-0.3-0.1-0.6-0.1-0.9-0.2
			C133.4,85.3,119.4,72.9,119.4,61.3z M153.6,116.8c0.2,0.1,0.5,0.1,0.7,0.2c1.4,0.4,2.9,0.8,4.3,1.1c0.1,0,0.2,0.1,0.3,0.1
			c10.1,2.4,20.9,3.9,32.4,4.3c0.2,0,0.3,0,0.5,0c1.9,0.1,3.7,0.1,5.6,0.1c1.6,0,3.3,0,4.9-0.1c0.6,0,1.3,0,1.9-0.1
			c1,0,1.9-0.1,2.9-0.1c0.8,0,1.6-0.1,2.4-0.2c0.8-0.1,1.6-0.1,2.3-0.2c0.9-0.1,1.7-0.1,2.6-0.2c0.7-0.1,1.3-0.1,2-0.2
			c0.9-0.1,1.9-0.2,2.8-0.3c0.6-0.1,1.2-0.2,1.7-0.2c1-0.1,1.9-0.3,2.9-0.4c0.5-0.1,1-0.2,1.5-0.2c1.6-0.3,3.1-0.5,4.6-0.8
			c0.9-0.2,1.8-0.3,2.7-0.5c0.5-0.1,1-0.2,1.5-0.3c1.1-0.2,2.1-0.5,3.1-0.7c0.3-0.1,0.7-0.2,1-0.3c1.2-0.3,2.5-0.6,3.7-1
			c0.1,0,0.2-0.1,0.4-0.1c7.4-2.1,14.3-4.7,20.7-7.8c49.7,7.5,86.8,30.1,86.8,53.4c0,12.3-10.5,25-29,35.2c-1.4,0.8-2.9,1.6-4.4,2.3
			c-0.4,0.2-0.9,0.4-1.3,0.6c-1.2,0.6-2.3,1.1-3.5,1.7c-0.3,0.2-0.7,0.3-1,0.4c-1.4,0.6-2.8,1.2-4.2,1.8c-0.1,0-0.2,0.1-0.3,0.1
			c-20.7,8.2-46.3,13.1-73.1,13.9c-0.2,0-0.4,0-0.6,0c-2.2,0.1-4.5,0.1-6.8,0.1c-1.9,0-3.8,0-5.7-0.1c-0.6,0-1.2,0-1.8,0
			c-1.3,0-2.6-0.1-3.9-0.1c-0.7,0-1.3-0.1-2-0.1c-1.7-0.1-3.4-0.2-5.1-0.3c-0.8-0.1-1.7-0.1-2.5-0.2c-0.9-0.1-1.9-0.2-2.8-0.2
			c-1-0.1-1.9-0.2-2.9-0.3c-0.8-0.1-1.7-0.2-2.5-0.3c-1.5-0.2-3-0.4-4.4-0.5c-1-0.1-2-0.3-2.9-0.4c-0.8-0.1-1.7-0.3-2.5-0.4
			c-1-0.2-2.1-0.3-3.1-0.5c-0.6-0.1-1.3-0.2-1.9-0.3c-17.5-3.1-33.4-8.2-46.8-14.9c-8.5-4.3-15.6-9-20.9-14
			c-0.2-0.1-0.3-0.3-0.5-0.4c-0.5-0.4-0.9-0.9-1.4-1.4c-0.3-0.3-0.6-0.7-1-1c-6.2-6.6-9.5-13.7-9.5-20.6
			C101.2,145.1,121.6,127.5,153.6,116.8z M45.7,262.8c0-21.9,19.7-43.4,53-58.3c2.3,2.1,4.9,4.1,7.6,6c0.5,0.4,1.1,0.8,1.6,1.1
			c0.2,0.1,0.4,0.3,0.6,0.4c23.2,15.9,57.2,26.4,95.5,29.3c0.2,0,0.4,0,0.6,0c2.2,0.2,4.5,0.3,6.7,0.4c0.1,0,0.1,0,0.2,0
			c2,0.1,4.1,0.2,6.1,0.2c0.5,0,1,0,1.5,0c2.1,0,4.3,0.1,6.4,0.1c33.6,0,65.2-5.7,90.9-16.3c0.3-0.1,0.6-0.2,0.8-0.4
			c1.4-0.6,2.9-1.2,4.3-1.8c0.6-0.3,1.2-0.5,1.7-0.8c0.7-0.3,1.5-0.7,2.2-1c11.9,9.5,23.7,23.4,23.7,40.9c0,11.4-5.1,22.3-14.3,32.2
			c-0.3,0.2-0.6,0.5-0.8,0.8c-24.1,25.3-72.7,42.2-125.8,44.3c-0.1,0-0.3,0-0.4,0c-1.5,0.1-2.9,0.1-4.4,0.1c-0.4,0-0.8,0-1.2,0
			c-1.6,0-3.2,0-4.9,0c-1.4,0-2.7,0-4.1,0c-0.7,0-1.4,0-2.1,0c-0.6,0-1.2,0-1.8,0c-1,0-2.1-0.1-3.1-0.1c-0.2,0-0.4,0-0.6,0
			c-37.7-1.5-72.1-10.5-97.4-23.9c-3.8-2-7.4-4.2-10.8-6.5c-0.2-0.1-0.3-0.2-0.5-0.3C57.4,296.3,45.7,280.1,45.7,262.8z M371,457.9
			c-38.7,19.3-90.3,30-145.5,30s-106.8-10.6-145.5-30c-35.5-17.7-55.8-41.3-55.8-64.7c0-21.4,16.4-42.4,46.3-59.6
			c0.2,0.1,0.5,0.3,0.8,0.4c0.6,0.4,1.3,0.8,2,1.1c0.4,0.3,0.9,0.5,1.3,0.7c0.4,0.2,0.8,0.5,1.3,0.7c0.1,0.1,0.3,0.1,0.4,0.2
			c1.7,0.9,3.4,1.8,5.2,2.7c0.4,0.2,0.8,0.4,1.3,0.6c1.6,0.8,3.3,1.6,5,2.4c0.6,0.3,1.2,0.6,1.9,0.8c1.5,0.7,3.1,1.3,4.6,2
			c0.9,0.4,1.8,0.7,2.7,1.1c1,0.4,2.1,0.8,3.2,1.2c1.5,0.6,3,1.1,4.5,1.6c0.4,0.1,0.8,0.3,1.2,0.4c2.2,0.8,4.4,1.5,6.7,2.2
			c0,0,0.1,0,0.1,0c14.5,4.5,30.1,7.9,46.3,9.9c1.1,0.1,2.1,0.3,3.2,0.4c1.2,0.1,2.4,0.3,3.6,0.4c1.8,0.2,3.5,0.4,5.3,0.5
			c0.9,0.1,1.8,0.1,2.7,0.2c2.1,0.2,4.1,0.3,6.2,0.4c0.6,0,1.2,0.1,1.8,0.1c2.4,0.1,4.7,0.2,7.1,0.3c0.3,0,0.6,0,0.8,0
			c2.6,0.1,5.3,0.1,8,0.1c2.5,0,5,0,7.5-0.1c0.7,0,1.5,0,2.2-0.1c2-0.1,4.1-0.1,6.1-0.2c1.1-0.1,2.1-0.1,3.2-0.2
			c1.5-0.1,3.1-0.2,4.6-0.3c1.3-0.1,2.6-0.2,3.9-0.3c0.7-0.1,1.4-0.1,2.2-0.2c30.4-2.9,58.7-10.3,82.5-21.5c0,0,0.1,0,0.1-0.1
			c3.2-1.5,6.4-3.1,9.4-4.7c10.4-5.7,19.4-12,26.9-18.8c50.1,18,80.9,46.5,80.9,75.3C426.8,416.6,406.5,440.1,371,457.9z"/>
	</g>
</g>
<g>
	<g>
		<path d="M169.2,172.6c-0.2-0.8-0.4-1.5-0.7-2.3c-0.3-0.7-0.7-1.4-1.1-2.1c-0.4-0.7-0.9-1.3-1.5-1.8s-1.2-1.1-1.8-1.5
			c-0.7-0.4-1.4-0.8-2.1-1.1c-0.7-0.3-1.5-0.5-2.3-0.7c-1.6-0.3-3.2-0.3-4.7,0c-0.8,0.1-1.5,0.4-2.3,0.7c-0.7,0.3-1.4,0.7-2.1,1.1
			c-0.7,0.4-1.3,0.9-1.8,1.5s-1.1,1.2-1.5,1.8c-0.4,0.7-0.8,1.4-1.1,2.1c-0.3,0.7-0.5,1.5-0.7,2.3c-0.2,0.8-0.2,1.6-0.2,2.4
			c0,3.2,1.3,6.3,3.5,8.5c0.6,0.6,1.2,1.1,1.8,1.5c0.7,0.4,1.4,0.8,2.1,1.1c0.7,0.3,1.5,0.5,2.3,0.7c0.8,0.2,1.6,0.2,2.4,0.2
			s1.6-0.1,2.4-0.2c0.8-0.1,1.5-0.4,2.3-0.7c0.7-0.3,1.4-0.7,2.1-1.1c0.7-0.4,1.3-0.9,1.8-1.5s1.1-1.2,1.5-1.8
			c0.4-0.7,0.8-1.4,1.1-2.1c0.3-0.7,0.5-1.5,0.7-2.3c0.2-0.8,0.2-1.6,0.2-2.4S169.3,173.3,169.2,172.6z"/>
	</g>
</g>
<g>
	<g>
		<path d="M324.8,153.8c-4.6-4.9-12.2-5.1-17.1-0.5c-1.7,1.6-7,5.9-18.6,10.4c-17.5,6.9-40.1,10.7-63.7,10.7
			c-10.1,0-20.1-0.7-29.6-2.1c-6.6-0.9-12.7,3.6-13.7,10.2c-0.9,6.6,3.6,12.7,10.2,13.7c10.7,1.5,21.8,2.3,33.1,2.3
			c26.5,0,52.3-4.4,72.5-12.3c14.1-5.5,22.1-11.4,26.3-15.3C329.1,166.3,329.4,158.6,324.8,153.8z"/>
	</g>
</g>
</svg>
