<?xml version="1.0" encoding="utf-8"?>
<!-- Generator: Adobe Illustrator 22.0.0, SVG Export Plug-In . SVG Version: 6.00 Build 0)  -->
<svg version="1.1" fill="#79b53d" id="Capa_1" xmlns="http://www.w3.org/2000/svg" xmlns:xlink="http://www.w3.org/1999/xlink" x="0px" y="0px"
	 viewBox="0 0 512 512" style="enable-background:new 0 0 512 512;" xml:space="preserve">

<g>
	<g>
		<path  d="M349.4,427.6l-9.4-16.3c-17.9-31.1-48.5-52.4-83.9-58.3c-35.4-5.9-71.2,4.3-98.2,27.9l-26.1,22.8
			c-17.4,15.2-23.7,38.3-16.3,60.3s26.3,36.6,49.3,38.3l131.7,9.5c1.4,0.1,2.9,0.2,4.3,0.2c19.4,0,37-9.7,47.5-26.4
			C359.6,467.7,360,446,349.4,427.6z M331.4,475c-7.3,11.6-19.7,17.9-33.4,16.9l-131.7-9.5c-17.8-1.3-28.1-13.6-31.8-24.7
			c-3.7-11.1-2.9-27.1,10.5-38.9l26.1-22.8c18.3-16,41.4-24.6,65.3-24.6c5.5,0,11,0.5,16.5,1.4c29.5,4.9,54.9,22.6,69.8,48.5
			l9.4,16.3C338.9,449.4,338.6,463.4,331.4,475z"/>
	</g>
</g>
<g>
	<g>
		<path  d="M459,246H349.1c-17.9,0-34.3,9-43.8,24.1c-9.6,15.1-10.7,33.8-3.1,49.9l51.1,108.2
			c8.5,18.1,26.9,29.7,46.9,29.7H459c28.6,0,51.9-23.3,51.9-51.9V297.9C510.9,269.3,487.6,246,459,246z M490.9,406.1
			c0,17.6-14.3,31.9-31.9,31.9h-58.9c-12.3,0-23.6-7.2-28.8-18.3l-51.1-108.2c-4.7-9.9-4-21.4,1.9-30.7c5.9-9.3,15.9-14.8,26.9-14.8
			H459c17.6,0,31.9,14.3,31.9,31.9V406.1z"/>
	</g>
</g>
<g>
	<g>
		<path d="M441.8,283.1h-33.2c-5.5,0-10,4.5-10,10s4.5,10,10,10h33.2c6.4,0,11.6,5.2,11.6,11.6c0,5.5,4.5,10,10,10
			s10-4.5,10-10C473.4,297.2,459.2,283.1,441.8,283.1z"/>
	</g>
</g>
<g>
	<g>
		<path  d="M381.2,286c-1.9-1.9-4.4-2.9-7.1-2.9c-2.6,0-5.2,1.1-7.1,2.9c-1.9,1.9-2.9,4.4-2.9,7.1s1.1,5.2,2.9,7.1
			c1.9,1.9,4.4,2.9,7.1,2.9c2.6,0,5.2-1.1,7.1-2.9c1.9-1.9,2.9-4.4,2.9-7.1S383,287.8,381.2,286z"/>
	</g>
</g>
<g>
	<g>
		<path d="M203.1,231.6l-53.9-22.3c-16.3-6.7-34.8-4.9-49.5,4.9l-75.1,50.1c-22.3,14.8-29.9,44-17.8,67.9l27.4,54
			c7.2,14.2,20.3,24.3,35.8,27.7c3.8,0.8,7.6,1.2,11.4,1.2c11.8,0,23.3-3.9,32.7-11.4l101.6-80.4c12.7-10.1,20-25.2,20-41.4v-1.4
			C235.8,258.9,222.9,239.8,203.1,231.6z M215.8,281.8c0,10.1-4.5,19.5-12.5,25.7l-101.6,80.4c-7.8,6.1-17.7,8.4-27.4,6.3
			c-9.7-2.1-17.8-8.4-22.3-17.2l-27.4-54c-7.5-14.8-2.8-33,11.1-42.2l75.1-50.1c5.5-3.7,11.8-5.5,18.2-5.5c4.2,0,8.5,0.8,12.5,2.5
			l53.9,22.3c12.3,5.1,20.3,17,20.3,30.3L215.8,281.8L215.8,281.8z"/>
	</g>
</g>
<g>
	<g>
		<path d="M393.6,159.3l-64.4-40.5c-11.4-7.2-25.7-8.3-38.1-3l-77.4,33.3c-14.3,6.2-23.8,19.6-24.8,35.2
			c-1,15.6,6.8,30.1,20.2,38l39,22.9c6.3,3.7,13.6,5.7,20.8,5.7c2,0,4.1-0.2,6.1-0.5l102.8-15.6c17.2-2.6,30.5-15.3,34.1-32.2
			C415.5,185.5,408.3,168.6,393.6,159.3z M392.3,198.4c-1.4,6.9-6.8,14.9-17.5,16.6L272,230.5c-4.8,0.7-9.7-0.2-13.8-2.7l-39-22.9
			c-7-4.1-10.9-11.4-10.4-19.5s5.3-14.9,12.7-18.1l77.4-33.3c6.4-2.7,13.7-2.2,19.6,1.5l64.4,40.5
			C392.1,182,393.8,191.5,392.3,198.4z"/>
	</g>
</g>
<g>
	<g>
		<path d="M293.7,313.7l-6.8-18.9c-3.5-9.8-12.5-16.4-22.9-16.9c-10.4-0.5-19.9,5.3-24.3,14.6l-8.9,18.9
			c-3.8,8-3.2,17.2,1.5,24.6c4.7,7.4,12.8,11.9,21.6,11.9h15.7c8.3,0,16.2-4.1,20.9-10.9C295.4,330.3,296.5,321.5,293.7,313.7z
			 M274.2,325.6c-0.6,0.9-2,2.4-4.6,2.4h-15.7c-2.8,0-4.2-1.8-4.7-2.6c-0.5-0.8-1.5-2.9-0.3-5.4l8.9-18.9c1.3-2.8,3.8-3.2,5-3.2
			c0.1,0,0.2,0,0.3,0c1.1,0.1,3.9,0.5,5,3.7l6.8,18.9C275.8,322.9,274.8,324.7,274.2,325.6z"/>
	</g>
</g>
<g>
	<g>
		<path d="M114.5,343.6c-3.4-4.3-9.7-5.1-14-1.6l-9.5,7.5c-2.6,2.1-6,2.9-9.3,2.1c-3.3-0.7-6-2.8-7.6-5.8l-11.3-22.3
			c-2.5-4.9-8.5-6.9-13.4-4.4c-4.9,2.5-6.9,8.5-4.4,13.4l11.3,22.3c4.3,8.4,11.9,14.3,21.1,16.3c2.2,0.5,4.5,0.7,6.7,0.7
			c6.9,0,13.7-2.3,19.3-6.7l9.5-7.5C117.2,354.2,118,347.9,114.5,343.6z"/>
	</g>
</g>
<g>
	<g>
		<path d="M138.1,323.5c-1.9-1.9-4.4-2.9-7.1-2.9s-5.2,1.1-7.1,2.9c-1.9,1.9-2.9,4.4-2.9,7.1c0,2.6,1.1,5.2,2.9,7.1
			c1.9,1.9,4.4,2.9,7.1,2.9s5.2-1.1,7.1-2.9c1.9-1.9,2.9-4.4,2.9-7.1S139.9,325.4,138.1,323.5z"/>
	</g>
</g>
<g>
	<g>
		<path d="M179.3,447.7c-6-0.4-8.1-5.2-8.6-6.7c-0.5-1.5-1.7-6.5,2.8-10.5c4.2-3.6,4.6-10,0.9-14.1
			c-3.6-4.2-10-4.6-14.1-0.9c-9.2,8.1-12.5,20.3-8.6,31.9c3.9,11.6,13.9,19.4,26.1,20.3c0.2,0,0.5,0,0.7,0c5.2,0,9.6-4,10-9.3
			C189,452.8,184.8,448.1,179.3,447.7z"/>
	</g>
</g>
</svg>
