<?xml version="1.0" encoding="utf-8"?>
<!-- Generator: Adobe Illustrator 23.0.0, SVG Export Plug-In . SVG Version: 6.00 Build 0)  -->
<svg version="1.1" id="Layer_1" xmlns="http://www.w3.org/2000/svg" xmlns:xlink="http://www.w3.org/1999/xlink" x="0px" y="0px"
	 viewBox="0 0 480 464" style="enable-background:new 0 0 480 464;" xml:space="preserve">
<path d="M49.1,340c-3.4,6-33.1,58.6-33.1,84c0,22.1,17.9,40,40,40s40-17.9,40-40c0-25.4-29.7-78-33.1-84c-1.5-2.3-4.1-3.7-6.9-3.7
	S50.6,337.7,49.1,340z M56,448c-13.3,0-24-10.7-24-24c0-14.1,13.9-43.9,24-63.2c10.1,19.3,24,49.1,24,63.2C80,437.3,69.3,448,56,448
	z"/>
<path d="M472,96h-48c-4.4,0-8,3.6-8,8v24H308.5l-11.9-42.2c-1-3.4-4.1-5.8-7.7-5.8H264V48h56c13.3,0,24-10.7,24-24S333.3,0,320,0
	H160c-13.3,0-24,10.7-24,24s10.7,24,24,24h56v32h-24.9c-3.6,0-6.7,2.4-7.7,5.8L171.5,128H104C46.6,128.1,0.1,174.6,0,232v64
	c0,4.4,3.6,8,8,8h96c4.4,0,8-3.6,8-8v-32c0-13.3,10.7-24,24-24h9.4c7.1,36.3,42.4,64,84.8,64h19.6c42.5,0,77.8-27.7,84.8-64H416v24
	c0,4.4,3.6,8,8,8h48c4.4,0,8-3.6,8-8V104C480,99.6,476.4,96,472,96z M152,24c0-4.4,3.6-8,8-8h160c4.4,0,8,3.6,8,8s-3.6,8-8,8H160
	C155.6,32,152,28.4,152,24z M232,48h16v32h-16V48z M96,264v24H16v-56c0.1-48.6,39.4-87.9,88-88h63l-22.6,80H136
	C113.9,224,96,241.9,96,264z M249.8,288h-19.6c-38.3,0-69.6-26.9-70.2-60.3L197.2,96h85.7L320,227.7
	C319.3,261.1,288.1,288,249.8,288z M335.6,224L313,144h103v80H335.6z M464,256h-32V112h32V256z"/>
</svg>
