<?xml version="1.0" encoding="utf-8"?>
<!-- Generator: Adobe Illustrator 23.0.0, SVG Export Plug-In . SVG Version: 6.00 Build 0)  -->
<svg version="1.1" id="Layer_1" xmlns="http://www.w3.org/2000/svg" xmlns:xlink="http://www.w3.org/1999/xlink" x="0px" y="0px"
	 viewBox="0 0 465 430" style="enable-background:new 0 0 465 430;" xml:space="preserve">
<title>Water</title>
<path d="M434.4,4.9c-1.2-3-4.2-4.9-7.4-4.9H38c-3.2,0-6.1,1.9-7.4,4.9l-30,72c-1.7,4.1,0.2,8.8,4.3,10.5c1,0.4,2,0.6,3.1,0.6h17.5
	v334c0,4.4,3.6,8,8,8h36c4.4,0,8-3.6,8-8V165h57v12.3c-0.1,4.1,3.1,7.5,7.2,7.7c0.2,0,0.3,0,0.5,0h48.3v32H138c-4.4,0-8.5,3.6-8.5,8
	v197c0,4.4,4.1,8,8.5,8h189c4.4,0,7.5-3.6,7.5-8V225c0-4.4-3.1-8-7.5-8H206.5v-32h116.3c4.1,0.1,7.5-3.1,7.7-7.2c0-0.2,0-0.3,0-0.5
	V165h57v257c0,4.4,3.6,8,8,8h36c4.4,0,8-3.6,8-8V88H457c4.4,0,8-3.6,8-8c0-1.1-0.2-2.1-0.6-3.1L434.4,4.9z M145.5,334v-24h173v24
	H145.5z M318.5,350v24h-173v-24H318.5z M145.5,294v-24h173v24H145.5z M145.5,414v-24h173v24H145.5z M318.5,254h-173v-21h173V254z
	 M41.5,414V88h20v326H41.5z M150.5,169v-25h40v25H150.5z M314.5,169h-108v-25h108V169z M330.5,149v-13c0.2-4.3-3.2-7.8-7.4-8
	c-0.1,0-0.2,0-0.2,0H142.2c-4.3,0-7.7,3.5-7.7,7.8c0,0.1,0,0.2,0,0.2v13h-57V88h310v61H330.5z M423.5,414h-20V88h20V414z M20,72
	l23.3-56h378.3L445,72H20z"/>
</svg>
