<svg version="1.1" id="Layer_1" xmlns="http://www.w3.org/2000/svg" x="0" y="0" viewBox="0 0 258.1 76.1" xml:space="preserve"><style>.st0{fill:#232323}</style><path class="st0" d="M11.8 11c.4.5.7 1.1.7 1.8s-.2 1.3-.6 1.8c-.4.5-1 .9-1.7 1.2-.7.3-1.5.4-2.3.4-.8 0-1.6-.1-2.3-.4-.8-.3-1.5-.6-2.1-1.1l.5-.9c.5.4 1.1.8 1.8 1s1.3.3 2 .3c.6 0 1.2-.1 1.8-.3s1-.5 1.3-.9c.3-.4.5-.8.5-1.4 0-.7-.3-1.2-.8-1.6-.5-.4-1.3-.6-2.3-.6H5.5v-1H8c.8 0 1.5-.2 2-.5.5-.4.7-.9.7-1.5 0-.7-.3-1.3-.9-1.7-.6-.2-1.4-.4-2.3-.4-.6 0-1.1.1-1.7.2-.6.2-1.2.4-1.7.8l-.4-1c1.2-.7 2.5-1.1 3.8-1.1.8 0 1.5.1 2.2.4.7.3 1.2.6 1.6 1.1.4.5.6 1.1.6 1.7 0 .6-.2 1.2-.5 1.6-.4.5-.8.8-1.5 1 .8.2 1.4.6 1.9 1.1zM21 8c.6.6.9 1.4.9 2.6v5.5h-1.2v-1.4c-.3.5-.7.8-1.2 1.1-.5.3-1.2.4-1.9.4-1 0-1.8-.2-2.4-.7s-.9-1.1-.9-1.9c0-.8.3-1.4.8-1.8.5-.5 1.4-.7 2.6-.7h2.8v-.5c0-.8-.2-1.4-.6-1.8s-.9-.6-1.7-.6c-.6 0-1.1.1-1.6.3-.5.2-1 .4-1.3.8l-.5-.9c.5-.4 1-.7 1.6-.9.6-.2 1.3-.3 2-.3 1.1-.1 2 .2 2.6.8zm-1.3 6.8c.5-.3.9-.8 1.1-1.4V12H18c-1.5 0-2.3.5-2.3 1.6 0 .5.2.9.6 1.2.4.3 1 .5 1.7.5.6 0 1.2-.2 1.7-.5zM31.5 8.3h-5.1v7.9h-1.2v-9h6.3v1.1zM34.2 15.6c-.7-.4-1.2-.9-1.6-1.6-.4-.7-.6-1.5-.6-2.3 0-.9.2-1.7.6-2.3.4-.7.9-1.2 1.6-1.6.7-.4 1.5-.6 2.3-.6s1.6.2 2.3.6c.7.4 1.2.9 1.6 1.6s.6 1.5.6 2.3c0 .9-.2 1.7-.6 2.3-.4.7-.9 1.2-1.6 1.6s-1.5.6-2.3.6-1.6-.2-2.3-.6zm4-.9c.5-.3.9-.7 1.2-1.2s.4-1.1.4-1.8-.1-1.3-.4-1.8-.7-.9-1.2-1.2-1.1-.4-1.7-.4-1.2.1-1.7.4-.9.7-1.2 1.2-.4 1.1-.4 1.8.1 1.3.4 1.8.7.9 1.2 1.2 1.1.4 1.7.4 1.2-.1 1.7-.4zM50.5 7.7c.7.4 1.2.9 1.6 1.6.4.7.6 1.5.6 2.4 0 .9-.2 1.7-.6 2.4-.4.7-.9 1.2-1.6 1.6s-1.4.6-2.3.6c-.7 0-1.4-.1-2-.5-.6-.3-1.1-.7-1.4-1.3v5h-1.2V7.2h1.2V9c.4-.6.8-1 1.4-1.4.6-.3 1.3-.5 2-.5.9 0 1.7.2 2.3.6zm-.6 7c.5-.3.9-.7 1.2-1.2.3-.5.4-1.1.4-1.8s-.1-1.3-.4-1.8c-.3-.5-.7-.9-1.2-1.2-.5-.3-1.1-.4-1.7-.4-.6 0-1.2.1-1.7.4-.5.3-.9.7-1.2 1.2-.3.5-.4 1.1-.4 1.8s.1 1.3.4 1.8.7.9 1.2 1.2 1.1.4 1.7.4c.6.1 1.2-.1 1.7-.4zM56.7 15.6c-.7-.3-1.3-.9-1.7-1.6-.4-.7-.6-1.5-.6-2.3 0-.9.2-1.7.6-2.3.4-.7.9-1.2 1.6-1.6.7-.4 1.5-.6 2.3-.6s1.6.2 2.3.6c.8.3 1.4.8 1.8 1.5s.6 1.5.6 2.3c0 .9-.2 1.7-.6 2.3-.4.7-.9 1.2-1.6 1.6s-1.5.6-2.3.6-1.7-.1-2.4-.5zm4-.9c.5-.3.9-.7 1.2-1.2s.4-1.1.4-1.8-.1-1.3-.4-1.8-.7-.9-1.2-1.2-1.1-.5-1.7-.5-1.2.1-1.7.4-.9.7-1.2 1.2-.4 1.1-.4 1.8.1 1.3.4 1.8.7.9 1.2 1.2 1.1.4 1.7.4 1.2 0 1.7-.3zM74.8 15.1v3.2h-1.1v-2.2h-8v2.2h-1.1v-3.2h.4c.6 0 1-.5 1.2-1.3.2-.9.4-2 .4-3.6l.1-3h6.6v7.9h1.5zm-7.3-1.7c-.2.8-.4 1.4-.9 1.7h5.6V8.3h-4.3l-.1 2c-.1 1.2-.2 2.3-.3 3.1zM77.1 7.2h1.2v4H84v-4h1.2v8.9H84v-3.9h-5.6v3.9h-1.2V7.2zM94.9 11.1c.6.5.9 1.2.9 2.1 0 1-.3 1.7-1 2.2-.6.5-1.5.8-2.7.7h-3.5V7.2h1.2v3.1h2.5c1.2.1 2 .3 2.6.8zm-.9 3.6c.4-.3.6-.9.6-1.5 0-.7-.2-1.1-.6-1.5-.4-.3-1-.5-1.9-.5h-2.3v4h2.3c.8.1 1.4-.1 1.9-.5zm3.3-7.5h1.2v8.9h-1.2V7.2zM102 7.2h1.2v7.1l6-7.1h1.1v8.9H109V9l-6 7.1h-1V7.2zm2.2-1.9c-.5-.4-.7-.9-.7-1.6h.9c0 .4.2.8.5 1.1.3.3.7.4 1.2.4s.9-.1 1.2-.4.5-.6.5-1.1h.9c0 .7-.2 1.2-.7 1.6-.5.4-1.1.6-1.8.6-.9 0-1.6-.2-2-.6z"/><g><path class="st0" d="M13.1 58.7c-3-1.6-5.3-3.9-7-6.8-1.7-2.9-2.5-6.1-2.5-9.7 0-3.6.8-6.8 2.5-9.7 1.7-2.9 4-5.1 7-6.8 3-1.6 6.4-2.5 10.1-2.5 2.9 0 5.5.5 8 1.5 2.4 1 4.5 2.4 6.1 4.3l-3.4 3.3c-2.8-2.9-6.3-4.4-10.4-4.4-2.8 0-5.2.6-7.5 1.9-2.2 1.2-4 2.9-5.2 5.1-1.3 2.2-1.9 4.6-1.9 7.3s.6 5.1 1.9 7.3c1.3 2.2 3 3.9 5.2 5.1 2.2 1.2 4.7 1.9 7.5 1.9 4.1 0 7.6-1.5 10.4-4.5l3.4 3.3c-1.7 1.9-3.8 3.4-6.2 4.3-2.4 1-5.1 1.5-8 1.5-3.7 0-7.1-.8-10-2.4zM71.5 56.1v4.6H44.6V23.6h26.2v4.6H49.9v11.4h18.6v4.5H49.9v12h21.6zM105.6 27.1c2.8 2.3 4.1 5.5 4.1 9.5s-1.4 7.2-4.1 9.5-6.5 3.4-11.3 3.4h-9.2v11.2h-5.3V23.6h14.5c4.8 0 8.6 1.2 11.3 3.5zm-3.8 15.6c1.8-1.4 2.6-3.5 2.6-6.2s-.9-4.7-2.6-6.2c-1.8-1.4-4.3-2.1-7.7-2.1h-9v16.6h9c3.4.1 5.9-.7 7.7-2.1zM145.9 44.7c1.3 1.5 1.9 3.5 1.9 5.9 0 3.2-1.2 5.7-3.5 7.5-2.3 1.8-5.8 2.7-10.3 2.7h-17V23.6h16c4.1 0 7.2.8 9.5 2.5 2.3 1.6 3.4 4 3.4 7.1 0 2-.5 3.7-1.5 5.1-1 1.4-2.4 2.5-4.3 3.2 2.6.6 4.5 1.6 5.8 3.2zm-23.5-4.8h10.3c2.6 0 4.5-.5 5.9-1.5 1.4-1 2-2.5 2-4.5s-.7-3.5-2.1-4.5c-1.4-1-3.3-1.6-5.9-1.6h-10.3v12.1zm20.1 10.3c0-2.1-.7-3.7-2.1-4.7S136.8 44 134 44h-11.6v12.6H134c5.7-.1 8.5-2.2 8.5-6.4zM156.7 23.6h5.2v28.6l21.9-28.6h4.9v37.1h-5.2V32.1l-22 28.6h-4.9V23.6zM206.9 58.7c-3-1.6-5.3-3.9-7-6.8s-2.5-6.1-2.5-9.7c0-3.6.8-6.8 2.5-9.7s4-5.1 7-6.8 6.4-2.5 10.1-2.5c2.9 0 5.5.5 8 1.5 2.4 1 4.5 2.4 6.1 4.3l-3.4 3.3c-2.8-2.9-6.3-4.4-10.4-4.4-2.8 0-5.2.6-7.5 1.9-2.2 1.2-4 2.9-5.2 5.1-1.3 2.2-1.9 4.6-1.9 7.3s.6 5.1 1.9 7.3c1.3 2.2 3 3.9 5.2 5.1 2.2 1.2 4.7 1.9 7.5 1.9 4.1 0 7.6-1.5 10.4-4.5l3.4 3.3c-1.7 1.9-3.8 3.4-6.2 4.3-2.4 1-5.1 1.5-8 1.5-3.7 0-7-.8-10-2.4z"/></g><circle cx="126.4" cy="11.5" r="4" fill="#238a58"/></svg>