<svg xmlns="http://www.w3.org/2000/svg" viewBox="0 0 159.5 139.9"><path d="M33.8 139.8c-.9-5.5-1.8-10.8-2.7-16.5H19.4c-5.9-1.5-8.1-5.2-9.6-9.1-1.8-4.8-3.2-9.7-4.3-14.7-2.8-13.6-2.3-27.4-1.6-41.2.1-3 .9-5.9 1.4-8.8.3-1.9.4-3.9.6-6.1-2.2-.3-3.9-.5-5.9-.7V24.1h159.4c.1 6 0 12.1 0 18.5-1.8.2-3.6.4-5.7.6-.1 1-.4 2.2-.1 3.2 2.6 11.7 2.2 23.5 2 35.3-.2 10.2-1.6 20.2-5.1 29.8-.8 2.3-1.9 4.6-3.2 6.7-2 3.1-4.7 5-8.7 4.8-3.1-.2-6.3 0-9.8 0-1.2 5.6-2.3 11.1-3.5 16.7H107c-.9-5.4-1.8-10.8-2.7-16.4H92.1c-1.2 5.5-2.4 10.9-3.6 16.4H70.7c-1.9-5-1.4-10.8-3-16.4H55.3c-.5 2.6-1.1 5.3-1.7 8-.5 2.6-1 5.2-1.6 8.2-2.8.9-6 .2-9.1.4-2.8 0-5.8-.1-9.1-.1zm-3.7-23c-1.1-7.9-2.2-15.2-3.3-22.6 2.1-.3 3.8-.5 5.8-.7 2.1 13.5 4.2 26.8 6.3 40.2h8.2c1.2-5.7 2.3-11.1 3.6-16.9h16.1c-1.1-7.8-2.2-15.1-3.3-22.6 2.2-.2 3.9-.4 5.9-.7 2.1 13.4 4.2 26.7 6.3 40.2h8.2c1.1-5.6 2.3-11.1 3.4-16.9h16.2c-1.1-7.7-2.2-15-3.3-22.6 2.2-.3 3.9-.5 5.8-.8 2.1 13.6 4.2 26.8 6.3 40.2h8.3c1.1-5.6 2.2-11.1 3.4-16.7h16.1c2.7-2.3 4-5.1 5.1-8.1 2.5-7.2 3.7-14.8 4.3-22.4.5-6.3.3-12.7.3-19-.1-9.3-1.1-18.5-3.9-27.5-.3-.9-.2-1.8-.2-2.9 2.9-.1 5.3-.2 7.6-.4v-6.7H6.1v6.9h8.3c-.6 2.1-1 3.9-1.5 5.6-1.9 5.9-2.7 12-3 18.1-.7 11.3-1.1 22.5.8 33.5.8 4.7 1.7 9.5 3.1 14.1 1 3.2 2.3 6.7 5.3 8.7h11zM96.7 15.3V.7c3.9-.8 24.2-1 35.7-.4.7 5 0 10.1.4 15.4h-6V6.6c-4.2-1.1-8.2-.5-12.1-.6-3.8-.1-7.6 0-11.9 0v9.9c-2.5 0-4.4.7-6.1-.6zM39.6 6.3v9.5c-2 .1-3.7.2-5.8.3V.4h35.4v15.4h-5.7V6.3H39.6z"/></svg>