<svg xmlns="http://www.w3.org/2000/svg" viewBox="0 0 483.7 490"><path d="M327.4 406.6c-22.9 0-40.7 18.8-40.7 41.7s18.8 41.7 40.7 41.7 40.7-18.8 40.7-41.7-18.8-41.7-40.7-41.7zm0 62.5c-11.5 0-19.8-9.4-19.8-20.9s9.4-20.9 19.8-20.9 19.8 9.4 19.8 20.9-9.4 20.9-19.8 20.9zM105.3 406.6c-22.9 0-40.7 18.8-40.7 41.7S83.4 490 105.3 490c22.9 0 40.7-18.8 40.7-41.7s-18.8-41.7-40.7-41.7zm0 62.5c-11.5 0-19.8-9.4-19.8-20.9s9.4-20.9 19.8-20.9c11.5 0 19.8 9.4 19.8 20.9 0 11.6-9.3 20.9-19.8 20.9zM425.4 0l-16.2 63.6H0l75.5 223.7c-25.3 3.7-44.2 25.1-44.2 52.6 0 30.2 22.9 54.2 52.1 54.2H367v-19.8H83.4c-17.7 0-31.3-14.6-31.3-33.4s14.6-33.4 31.3-33.4H368l74-286.7h41.7V0h-58.3zm-73 286.7H97L29.2 84.4h374.3l-51.1 202.3z"/><path d="M132.4 133.4h20.9v117.8h-20.9zM206.5 133.4h20.9v117.8h-20.9zM280.5 133.4h20.9v117.8h-20.9z"/></svg>