<svg viewBox="0 0 512.001 512" xmlns="http://www.w3.org/2000/svg"><path d="M177.8 206.922c3.91-3.91 3.91-10.242 0-14.14-3.898-3.91-10.23-3.91-14.14 0-3.91 3.898-3.91 10.23 0 14.14 3.91 3.898 10.242 3.898 14.14 0zm0 0M276.8 221.063c11.696-11.696 11.696-30.727 0-42.422-11.722-11.723-30.706-11.727-42.429 0-11.726 11.722-11.726 30.695 0 42.422 11.695 11.695 30.73 11.699 42.43 0zm-28.288-28.282a10.006 10.006 0 0 1 14.148 0c3.895 3.899 3.895 10.239 0 14.137-3.902 3.898-10.25 3.902-14.148 0a9.985 9.985 0 0 1 0-14.137zm0 0M234.371 291.766c-11.726 11.726-11.726 30.707 0 42.433 11.723 11.723 30.703 11.727 42.43 0 11.699-11.699 11.699-30.734 0-42.433-11.723-11.72-30.707-11.723-42.43 0zm28.29 28.293c-3.911 3.906-10.243 3.906-14.15 0-3.902-3.903-3.917-10.23 0-14.149 3.91-3.91 10.239-3.906 14.15 0 3.898 3.899 3.898 10.246 0 14.149zm0 0M175.066 272.52c1.082 5.421 6.356 8.925 11.766 7.843l141.418-28.289c5.414-1.082 8.926-6.351 7.844-11.765-1.082-5.418-6.352-8.926-11.766-7.844L182.91 260.754c-5.418 1.082-8.93 6.351-7.844 11.766zm0 0"/><path d="M304.008 56.574a9.996 9.996 0 0 0-7.07 2.926L191.948 164.488c-3.906 3.907-3.906 10.239 0 14.145s10.238 3.906 14.14 0l97.919-97.918L431.28 207.992l-224.5 224.5L79.504 305.22l70.02-70.02c3.906-3.902 3.906-10.234 0-14.14-3.907-3.903-10.239-3.903-14.145 0l-77.086 77.09c-3.906 3.902-3.906 10.234 0 14.14l141.418 141.418a9.996 9.996 0 0 0 14.14 0l238.645-238.644c3.906-3.907 3.906-10.239 0-14.145L311.078 59.5a9.996 9.996 0 0 0-7.07-2.926zm0 0"/><path d="M494.926 2.934l-42.922 42.918c-25.043-18.91-59.625-19.22-84.457-.782L332.39 8.895l-.102-.102c-11.664-11.664-30.633-11.79-42.437.016L8.793 291.079c-11.723 11.722-11.727 30.706 0 42.433l39.664 39.66c-8.86 25.355-2.469 54.101 16.902 73.465 19.368 19.375 48.114 25.761 73.47 16.91l39.663 39.66c11.723 11.723 30.715 11.719 42.414.016l282.301-281.09c11.727-11.727 11.727-30.7 0-42.422l-.102-.102-36.171-35.148c18.37-24.664 18.3-59.262-.786-84.465l42.918-42.918c3.907-3.906 3.907-10.238 0-14.144a9.996 9.996 0 0 0-14.14 0zM446.145 138a10.027 10.027 0 0 0-2.93 7.145 10.002 10.002 0 0 0 3.031 7.097l42.86 41.653c3.878 3.921 3.835 10.218-.028 14.078l-282.297 281.09c-3.902 3.902-10.25 3.902-14.148 0l-44.352-44.348a9.998 9.998 0 0 0-11.316-1.984c-19.23 9.023-42.324 4.91-57.461-10.239-15.149-15.137-19.262-38.226-10.238-57.457a10 10 0 0 0-1.98-11.32l-44.349-44.348c-3.902-3.902-3.902-10.246.012-14.164l281.063-282.27c3.89-3.886 10.18-3.91 14.093-.042l41.649 42.859c3.734 3.844 10.129 4.219 14.246.105 17.117-17.125 43.922-18.953 63.668-5.668L423 74.855c-11.152-5.312-24.926-3.363-34.145 5.856-11.695 11.7-11.695 30.734 0 42.43 11.723 11.722 30.707 11.726 42.434 0 9.43-9.43 11.082-23.262 5.867-34.157L451.82 74.32c13.184 19.516 11.664 46.344-5.675 63.68zm-29-43.148c3.902 3.902 3.917 10.23 0 14.148-3.907 3.906-10.239 3.906-14.145 0-3.902-3.902-3.902-10.25-.004-14.148 3.902-3.895 10.25-3.903 14.149 0zm0 0"/></svg>